# This file uses centimeters as units for non-parametric coordinates.

mtllib Back counter.mtl
v -5.949927 0.054796 1.919800
v 5.949927 0.054796 1.919800
v -5.949927 1.425185 1.919800
v 5.949927 1.425185 1.919800
v -5.949927 1.425185 -1.919800
v 5.949927 1.425185 -1.919800
v -5.949927 0.054796 -1.919800
v 5.949927 0.054796 -1.919800
vt 0.566734 0.324111
vt 0.376625 0.477002
vt 0.339818 0.478311
vt 0.426078 0.286112
vt 0.417892 0.537251
vt 0.245905 0.684419
vt 0.453892 0.535501
vt 0.369692 0.739452
vt 0.508463 0.792230
vt 0.697353 0.400803
vn 0.000000 0.000000 1.000000
vn 0.000000 0.000000 1.000000
vn 0.000000 0.000000 1.000000
vn 0.000000 0.000000 1.000000
vn 0.000000 1.000000 0.000000
vn 0.000000 1.000000 0.000000
vn 0.000000 1.000000 0.000000
vn 0.000000 1.000000 0.000000
vn 0.000000 0.000000 -1.000000
vn 0.000000 0.000000 -1.000000
vn 0.000000 0.000000 -1.000000
vn 0.000000 0.000000 -1.000000
vn 0.000000 -1.000000 0.000000
vn 0.000000 -1.000000 0.000000
vn 0.000000 -1.000000 0.000000
vn 0.000000 -1.000000 0.000000
vn 1.000000 0.000000 0.000000
vn 1.000000 0.000000 0.000000
vn 1.000000 0.000000 0.000000
vn 1.000000 0.000000 0.000000
vn -1.000000 0.000000 0.000000
vn -1.000000 0.000000 0.000000
vn -1.000000 0.000000 0.000000
vn -1.000000 0.000000 0.000000
s off
usemtl initialShadingGroup
f 1/1/1 2/2/2 4/3/3 3/4/4
f 3/4/5 4/3/6 6/5/7 5/6/8
f 5/6/9 6/5/10 8/7/11 7/8/12
f 7/8/13 8/7/14 2/2/15 1/1/16
f 2/2/17 8/7/18 6/5/19 4/3/20
f 7/8/21 1/1/22 3/10/23 5/9/24
