# This file uses centimeters as units for non-parametric coordinates.

mtllib Cash regester.mtl
v -1.428120 0.887434 1.428120
v 1.428120 0.887434 1.428120
v -1.428120 1.372676 1.428120
v 1.428120 1.372676 1.428120
v -1.428120 1.372676 -1.428120
v 1.428120 1.372676 -1.428120
v -1.428120 0.887434 -1.428120
v 1.428120 0.887434 -1.428120
v 1.027980 1.372676 -1.428120
v 1.027980 0.887434 -1.428120
v 1.027980 0.887434 1.428120
v 1.027980 1.372676 1.428120
v -1.145889 3.635678 1.428120
v -1.145889 3.635678 -1.428120
v -0.745749 3.635678 1.428120
v -0.745749 3.635678 -1.428120
v 0.953414 1.866846 1.428120
v 0.553275 1.866846 1.428120
v 0.553275 1.866846 -1.428120
v 0.953414 1.866846 -1.428120
v -0.188294 3.055367 1.428120
v -0.588434 3.055367 1.428120
v -0.588434 3.055367 -1.428120
v -0.188294 3.055367 -1.428120
v -0.745749 3.635678 1.248474
v -1.145889 3.635678 1.248474
v -0.588434 3.055367 1.248474
v 0.553275 1.866846 1.248474
v 1.027980 1.372676 1.248474
v -1.428120 1.372676 1.248474
v -1.428120 0.887434 1.248474
v 1.027980 0.887434 1.248474
v 1.428120 0.887434 1.248474
v 1.428120 1.372676 1.248474
v 0.953414 1.866846 1.248474
v -0.188294 3.055367 1.248474
v -0.745749 3.635678 -1.114879
v -1.145889 3.635678 -1.114879
v -0.588434 3.055367 -1.114879
v 0.553275 1.866846 -1.114879
v 1.027980 1.372676 -1.114879
v -1.428120 1.372676 -1.114879
v -1.428120 0.887434 -1.114879
v 1.027980 0.887434 -1.114879
v 1.428120 0.887434 -1.114879
v 1.428120 1.372676 -1.114879
v 0.953414 1.866846 -1.114879
v -0.188294 3.055367 -1.114879
v 0.889720 1.845424 1.248474
v -0.251988 3.033945 1.248474
v 0.889720 1.845424 -1.114879
v -0.251988 3.033945 -1.114879
vt 0.583695 0.088818
vt 0.583695 0.088818
vt 0.583695 0.154251
vt 0.583695 0.154251
vt 0.606620 0.154251
vt 0.606620 0.154251
vt 0.948188 0.154251
vt 0.948188 0.154251
vt 0.948188 0.088818
vt 0.948188 0.088818
vt 0.606620 0.088818
vt 0.606620 0.088818
vt 0.583695 0.088818
vt 0.606620 0.088818
vt 0.606620 0.154251
vt 0.583695 0.154251
vt 0.948188 0.154251
vt 0.948188 0.088818
vt 0.606620 0.459408
vt 0.583695 0.459408
vt 0.583695 0.459408
vt 0.606620 0.459408
vt 0.583695 0.220888
vt 0.606620 0.220888
vt 0.583695 0.220888
vt 0.606620 0.220888
vt 0.948188 0.220888
vt 0.948188 0.220888
vt 0.583695 0.381155
vt 0.583695 0.381155
vt 0.606620 0.381155
vt 0.948188 0.381155
vt 0.948188 0.381155
vt 0.606620 0.381155
vt 0.948188 0.459408
vt 0.948188 0.459408
vt 0.908214 0.459408
vt 0.908214 0.459408
vt 0.908214 0.381155
vt 0.908214 0.220888
vt 0.908214 0.154251
vt 0.908214 0.154251
vt 0.908214 0.088818
vt 0.908214 0.088818
vt 0.908214 0.088818
vt 0.908214 0.154251
vt 0.908214 0.220888
vt 0.606620 0.378267
vt 0.606620 0.217999
vt 0.908214 0.217999
vt 0.908214 0.378267
vt 0.908214 0.381155
vn 0.000000 0.000000 1.000000
vn 0.000000 0.000000 1.000000
vn 0.000000 0.000000 1.000000
vn 0.000000 0.000000 1.000000
vn 0.000000 1.000000 0.000000
vn 0.000000 1.000000 0.000000
vn 0.000000 1.000000 0.000000
vn 0.000000 1.000000 0.000000
vn 0.000000 0.000000 -1.000000
vn 0.000000 0.000000 -1.000000
vn 0.000000 0.000000 -1.000000
vn 0.000000 0.000000 -1.000000
vn 0.000000 -1.000000 0.000000
vn 0.000000 -1.000000 0.000000
vn 0.000000 -1.000000 0.000000
vn 0.000000 -1.000000 0.000000
vn 1.000000 0.000000 0.000000
vn 1.000000 0.000000 0.000000
vn 1.000000 0.000000 0.000000
vn 1.000000 0.000000 0.000000
vn -1.000000 0.000000 0.000000
vn -1.000000 0.000000 0.000000
vn -1.000000 0.000000 0.000000
vn -1.000000 0.000000 0.000000
vn 0.000000 0.000000 -1.000000
vn 0.000000 0.000000 -1.000000
vn 0.000000 0.000000 -1.000000
vn 0.000000 0.000000 -1.000000
vn 0.000000 -1.000000 0.000000
vn 0.000000 -1.000000 0.000000
vn 0.000000 -1.000000 0.000000
vn 0.000000 -1.000000 0.000000
vn 0.000000 0.000000 1.000000
vn 0.000000 0.000000 1.000000
vn 0.000000 0.000000 1.000000
vn 0.000000 0.000000 1.000000
vn 0.000000 1.000000 0.000000
vn 0.000000 1.000000 0.000000
vn 0.000000 1.000000 0.000000
vn 0.000000 1.000000 0.000000
vn -0.721166 -0.692762 0.000000
vn -0.721166 -0.692762 0.000000
vn -0.721166 -0.692762 0.000000
vn -0.721166 -0.692762 0.000000
vn 0.000000 0.000000 1.000000
vn 0.000000 0.000000 1.000000
vn 0.000000 0.000000 1.000000
vn 0.000000 0.000000 1.000000
vn 0.721166 0.692762 0.000000
vn 0.721166 0.692762 0.000000
vn 0.721166 0.692762 0.000000
vn 0.721167 0.692762 0.000000
vn 0.000000 0.000000 -1.000000
vn 0.000000 0.000000 -1.000000
vn 0.000000 0.000000 -1.000000
vn 0.000000 0.000000 -1.000000
vn 0.000000 0.000000 1.000000
vn 0.000000 0.000000 1.000000
vn 0.000000 0.000000 1.000000
vn 0.000000 0.000000 1.000000
vn -0.721166 -0.692762 0.000000
vn -0.721166 -0.692762 0.000000
vn -0.721166 -0.692762 0.000000
vn -0.721166 -0.692762 0.000000
vn 0.000000 0.000000 -1.000000
vn 0.000000 0.000000 -1.000000
vn 0.000000 0.000000 -1.000000
vn 0.000000 0.000000 -1.000000
vn 0.721167 0.692762 0.000000
vn 0.721166 0.692762 0.000000
vn 0.721167 0.692762 0.000000
vn 0.721166 0.692762 0.000000
vn 0.000000 0.000000 1.000000
vn 0.000000 0.000000 1.000000
vn 0.000000 0.000000 1.000000
vn 0.000000 0.000000 1.000000
vn -0.721166 -0.692762 0.000000
vn -0.721166 -0.692762 0.000000
vn -0.721167 -0.692762 0.000000
vn -0.721167 -0.692762 0.000000
vn 0.000000 0.000000 -1.000000
vn 0.000000 0.000000 -1.000000
vn 0.000000 0.000000 -1.000000
vn 0.000000 0.000000 -1.000000
vn 0.721166 0.692762 0.000000
vn 0.721167 0.692762 0.000000
vn 0.721167 0.692762 0.000000
vn 0.721166 0.692762 0.000000
vn 0.000000 1.000000 0.000000
vn 0.000000 1.000000 0.000000
vn 0.000000 1.000000 0.000000
vn 0.000000 1.000000 0.000000
vn -0.721166 -0.692762 0.000000
vn -0.721166 -0.692762 0.000000
vn -0.721167 -0.692762 0.000000
vn -0.721167 -0.692762 0.000000
vn -0.721166 -0.692762 0.000000
vn -0.721166 -0.692762 0.000000
vn -0.721166 -0.692762 0.000000
vn -0.721166 -0.692762 0.000000
vn -0.721166 -0.692762 0.000000
vn -0.721166 -0.692762 0.000000
vn -0.721166 -0.692762 0.000000
vn -0.721166 -0.692762 0.000000
vn 0.000000 1.000000 0.000000
vn 0.000000 1.000000 0.000000
vn 0.000000 1.000000 0.000000
vn 0.000000 1.000000 0.000000
vn -1.000000 0.000000 0.000000
vn -1.000000 0.000000 0.000000
vn -1.000000 0.000000 0.000000
vn -1.000000 0.000000 0.000000
vn 0.000000 -1.000000 0.000000
vn 0.000000 -1.000000 0.000000
vn 0.000000 -1.000000 0.000000
vn 0.000000 -1.000000 0.000000
vn 0.000000 -1.000000 0.000000
vn 0.000000 -1.000000 0.000000
vn 0.000000 -1.000000 0.000000
vn 0.000000 -1.000000 0.000000
vn 1.000000 0.000000 0.000000
vn 1.000000 0.000000 0.000000
vn 1.000000 0.000000 0.000000
vn 1.000000 0.000000 0.000000
vn 0.721166 0.692762 0.000000
vn 0.721166 0.692762 0.000000
vn 0.721166 0.692762 0.000000
vn 0.721166 0.692762 0.000000
vn 0.721166 0.692762 0.000000
vn 0.721166 0.692762 0.000000
vn 0.721166 0.692762 0.000000
vn 0.721166 0.692762 0.000000
vn 0.721167 0.692762 0.000000
vn 0.721167 0.692762 0.000000
vn 0.721166 0.692762 0.000000
vn 0.721166 0.692762 0.000000
vn 0.000000 1.000000 0.000000
vn 0.000000 1.000000 0.000000
vn 0.000000 1.000000 0.000000
vn 0.000000 1.000000 0.000000
vn -0.721166 -0.692762 0.000000
vn -0.721166 -0.692762 0.000000
vn -0.721167 -0.692762 0.000000
vn -0.721166 -0.692762 0.000000
vn -0.721166 -0.692762 0.000000
vn -0.721166 -0.692762 0.000000
vn -0.721166 -0.692762 0.000000
vn -0.721166 -0.692762 0.000000
vn -0.721166 -0.692762 0.000000
vn -0.721166 -0.692762 0.000000
vn -0.721166 -0.692762 0.000000
vn -0.721166 -0.692762 0.000000
vn 0.000000 1.000000 0.000000
vn 0.000000 1.000000 0.000000
vn 0.000000 1.000000 0.000000
vn 0.000000 1.000000 0.000000
vn -1.000000 0.000000 0.000000
vn -1.000000 0.000000 0.000000
vn -1.000000 0.000000 0.000000
vn -1.000000 0.000000 0.000000
vn 0.000000 -1.000000 0.000000
vn 0.000000 -1.000000 0.000000
vn 0.000000 -1.000000 0.000000
vn 0.000000 -1.000000 0.000000
vn 0.000000 -1.000000 0.000000
vn 0.000000 -1.000000 0.000000
vn 0.000000 -1.000000 0.000000
vn 0.000000 -1.000000 0.000000
vn 1.000000 0.000000 0.000000
vn 1.000000 0.000000 0.000000
vn 1.000000 0.000000 0.000000
vn 1.000000 0.000000 0.000000
vn 0.721166 0.692762 0.000000
vn 0.721166 0.692762 0.000000
vn 0.721166 0.692762 0.000000
vn 0.721166 0.692762 0.000000
vn 0.721166 0.692762 0.000000
vn 0.721166 0.692762 0.000000
vn 0.721166 0.692762 0.000000
vn 0.721166 0.692762 0.000000
vn 0.721166 0.692762 0.000000
vn 0.721166 0.692762 0.000000
vn 0.721166 0.692762 0.000000
vn 0.721166 0.692762 0.000000
vn -0.000001 0.000000 -1.000000
vn -0.000001 0.000000 -1.000000
vn -0.000001 0.000000 -1.000000
vn -0.000001 0.000000 -1.000000
vn -0.318775 0.947830 0.000000
vn -0.318775 0.947830 0.000000
vn -0.318775 0.947830 0.000000
vn -0.318775 0.947830 0.000000
vn 0.000000 -0.000000 1.000000
vn 0.000000 -0.000000 1.000000
vn 0.000000 -0.000000 1.000000
vn 0.000000 -0.000000 1.000000
vn 0.318775 -0.947830 0.000000
vn 0.318775 -0.947830 0.000000
vn 0.318775 -0.947830 0.000000
vn 0.318775 -0.947830 0.000000
s off
usemtl initialShadingGroup
f 1/1/1 11/2/2 12/3/3 3/4/4
f 3/4/5 12/3/6 29/5/7 30/6/8
f 5/7/9 9/8/10 10/9/11 7/10/12
f 31/11/13 32/12/14 11/2/15 1/1/16
f 2/13/17 33/14/18 34/15/19 4/16/20
f 31/11/21 1/1/22 3/4/23 30/6/24
f 9/8/25 6/17/26 8/18/27 10/9/28
f 11/2/29 32/12/30 33/14/31 2/13/32
f 12/3/33 11/2/34 2/13/35 4/16/36
f 26/19/37 13/20/38 15/21/39 25/22/40
f 29/5/41 12/3/42 18/23/43 28/24/44
f 12/3/45 4/16/46 17/25/47 18/23/48
f 4/16/49 34/15/50 35/26/51 17/25/52
f 6/17/53 9/8/54 19/27/55 20/28/56
f 18/23/57 17/25/58 21/29/59 22/30/60
f 28/24/61 18/23/62 22/30/63 27/31/64
f 20/28/65 19/27/66 23/32/67 24/33/68
f 17/25/69 35/26/70 36/34/71 21/29/72
f 22/30/73 21/29/74 15/21/75 13/20/76
f 27/31/77 22/30/78 13/20/79 26/19/80
f 24/33/81 23/32/82 14/35/83 16/36/84
f 21/29/85 36/34/86 25/22/87 15/21/88
f 38/37/89 26/19/90 25/22/91 37/38/92
f 39/39/93 27/31/94 26/19/95 38/37/96
f 40/40/97 28/24/98 27/31/99 39/39/100
f 41/41/101 29/5/102 28/24/103 40/40/104
f 30/6/105 29/5/106 41/41/107 42/42/108
f 43/43/109 31/11/110 30/6/111 42/42/112
f 43/43/113 44/44/114 32/12/115 31/11/116
f 33/14/117 32/12/118 44/44/119 45/45/120
f 34/15/121 33/14/122 45/45/123 46/46/124
f 35/26/125 34/15/126 46/46/127 47/47/128
f 50/48/129 49/49/130 51/50/131 52/51/132
f 25/22/133 36/34/134 48/52/135 37/38/136
f 14/35/137 38/37/138 37/38/139 16/36/140
f 23/32/141 39/39/142 38/37/143 14/35/144
f 19/27/145 40/40/146 39/39/147 23/32/148
f 9/8/149 41/41/150 40/40/151 19/27/152
f 42/42/153 41/41/154 9/8/155 5/7/156
f 7/10/157 43/43/158 42/42/159 5/7/160
f 7/10/161 10/9/162 44/44/163 43/43/164
f 45/45/165 44/44/166 10/9/167 8/18/168
f 46/46/169 45/45/170 8/18/171 6/17/172
f 47/47/173 46/46/174 6/17/175 20/28/176
f 48/52/177 47/47/178 20/28/179 24/33/180
f 37/38/181 48/52/182 24/33/183 16/36/184
f 36/34/185 35/26/186 49/49/187 50/48/188
f 35/26/189 47/47/190 51/50/191 49/49/192
f 47/47/193 48/52/194 52/51/195 51/50/196
f 48/52/197 36/34/198 50/48/199 52/51/200
v -2.011413 2.443839 2.109216
v -1.853225 2.353376 2.111331
v -0.643896 4.835530 2.126606
v -0.485707 4.745067 2.128722
v -0.589047 4.834359 -2.025776
v -0.430860 4.743897 -2.023660
v -1.956566 2.442668 -2.043163
v -1.798379 2.352206 -2.041048
vt 0.102349 0.524495
vt 0.101983 0.507953
vt 0.098973 0.945304
vt 0.099339 0.961846
vt 0.817557 0.945090
vt 0.817923 0.961632
vt 0.820566 0.507739
vt 0.820932 0.524281
vn -0.013212 0.000283 0.999913
vn -0.013212 0.000283 0.999913
vn -0.013212 0.000283 0.999913
vn -0.013212 0.000283 0.999913
vn 0.496352 0.868098 0.006312
vn 0.496352 0.868098 0.006312
vn 0.496352 0.868098 0.006312
vn 0.496352 0.868098 0.006312
vn 0.013210 -0.000283 -0.999913
vn 0.013210 -0.000283 -0.999913
vn 0.013210 -0.000283 -0.999913
vn 0.013210 -0.000283 -0.999913
vn -0.496356 -0.868096 -0.006311
vn -0.496356 -0.868096 -0.006311
vn -0.496356 -0.868096 -0.006311
vn -0.496356 -0.868096 -0.006311
vn 0.868017 -0.496398 0.011605
vn 0.868017 -0.496398 0.011605
vn 0.868017 -0.496398 0.011605
vn 0.868017 -0.496398 0.011605
vn -0.868017 0.496398 -0.011606
vn -0.868017 0.496398 -0.011606
vn -0.868017 0.496398 -0.011606
vn -0.868017 0.496398 -0.011606
s off
f 53/53/201 54/54/202 56/55/203 55/56/204
f 55/56/205 56/55/206 58/57/207 57/58/208
f 57/58/209 58/57/210 60/59/211 59/60/212
f 59/60/213 60/59/214 54/54/215 53/53/216
f 54/54/217 60/59/218 58/57/219 56/55/220
f 59/60/221 53/53/222 55/56/223 57/58/224
v -0.164222 2.991552 1.211595
v 0.880696 1.834408 1.214770
v -0.078890 3.068608 1.211515
v 0.966029 1.911464 1.214689
v -0.076938 3.064027 -1.100839
v 0.967981 1.906883 -1.097664
v -0.162270 2.986971 -1.100758
v 0.882649 1.829827 -1.097584
vt 0.021525 0.330359
vt 0.020879 0.081719
vt 0.020895 0.098276
vt 0.021541 0.346916
vt 0.491106 0.097292
vt 0.491752 0.345932
vt 0.491090 0.080735
vt 0.491735 0.329374
vn -0.000845 0.001981 0.999998
vn -0.000845 0.001981 0.999998
vn -0.000845 0.001981 0.999998
vn -0.000845 0.001981 0.999998
vn 0.742181 0.670199 -0.000701
vn 0.742181 0.670199 -0.000701
vn 0.742181 0.670199 -0.000701
vn 0.742181 0.670199 -0.000701
vn 0.000844 -0.001981 -0.999998
vn 0.000844 -0.001981 -0.999998
vn 0.000844 -0.001981 -0.999998
vn 0.000844 -0.001981 -0.999998
vn -0.742181 -0.670199 0.000701
vn -0.742181 -0.670199 0.000701
vn -0.742181 -0.670199 0.000701
vn -0.742181 -0.670199 0.000701
vn 0.670199 -0.742179 0.002036
vn 0.670199 -0.742179 0.002036
vn 0.670199 -0.742179 0.002036
vn 0.670199 -0.742179 0.002036
vn -0.670199 0.742179 -0.002036
vn -0.670199 0.742179 -0.002036
vn -0.670199 0.742179 -0.002036
vn -0.670199 0.742179 -0.002036
s off
f 61/61/225 62/62/226 64/63/227 63/64/228
f 63/64/229 64/63/230 66/65/231 65/66/232
f 65/66/233 66/65/234 68/67/235 67/68/236
f 67/68/237 68/67/238 62/62/239 61/61/240
f 62/62/241 68/67/242 66/65/243 64/63/244
f 67/68/245 61/61/246 63/64/247 65/66/248
