# This file uses centimeters as units for non-parametric coordinates.

mtllib Cash regester.mtl
g default
v -1.428120 0.887434 1.428120
v 1.428120 0.887434 1.428120
v -1.428120 1.372676 1.428120
v 1.428120 1.372676 1.428120
v -1.428120 1.372676 -1.428120
v 1.428120 1.372676 -1.428120
v -1.428120 0.887434 -1.428120
v 1.428120 0.887434 -1.428120
v 1.027980 1.372676 -1.428120
v 1.027980 0.887434 -1.428120
v 1.027980 0.887434 1.428120
v 1.027980 1.372676 1.428120
v -1.145889 3.635678 1.428120
v -1.145889 3.635678 -1.428120
v -0.745749 3.635678 1.428120
v -0.745749 3.635678 -1.428120
v 0.953414 1.866846 1.428120
v 0.553275 1.866846 1.428120
v 0.553275 1.866846 -1.428120
v 0.953414 1.866846 -1.428120
v -0.188294 3.055367 1.428120
v -0.588434 3.055367 1.428120
v -0.588434 3.055367 -1.428120
v -0.188294 3.055367 -1.428120
v -0.745749 3.635678 1.248474
v -1.145889 3.635678 1.248474
v -0.588434 3.055367 1.248474
v 0.553275 1.866846 1.248474
v 1.027980 1.372676 1.248474
v -1.428120 1.372676 1.248474
v -1.428120 0.887434 1.248474
v 1.027980 0.887434 1.248474
v 1.428120 0.887434 1.248474
v 1.428120 1.372676 1.248474
v 0.953414 1.866846 1.248474
v -0.188294 3.055367 1.248474
v -0.745749 3.635678 -1.114879
v -1.145889 3.635678 -1.114879
v -0.588434 3.055367 -1.114879
v 0.553275 1.866846 -1.114879
v 1.027980 1.372676 -1.114879
v -1.428120 1.372676 -1.114879
v -1.428120 0.887434 -1.114879
v 1.027980 0.887434 -1.114879
v 1.428120 0.887434 -1.114879
v 1.428120 1.372676 -1.114879
v 0.953414 1.866846 -1.114879
v -0.188294 3.055367 -1.114879
v 0.889720 1.845424 1.248474
v -0.251988 3.033945 1.248474
v 0.889720 1.845424 -1.114879
v -0.251988 3.033945 -1.114879
vt 0.375000 0.000000
vt 0.625000 0.000000
vt 0.375000 0.250000
vt 0.625000 0.250000
vt 0.375000 0.500000
vt 0.625000 0.500000
vt 0.375000 0.750000
vt 0.625000 0.750000
vt 0.375000 1.000000
vt 0.625000 1.000000
vt 0.875000 0.000000
vt 0.875000 0.250000
vt 0.125000 0.000000
vt 0.125000 0.250000
vt 0.589977 0.500000
vt 0.589977 0.750000
vt 0.589977 0.000000
vt 0.589977 1.000000
vt 0.589977 0.250000
vt 0.589977 0.500000
vt 0.589977 0.250000
vt 0.625000 0.250000
vt 0.625000 0.500000
vt 0.625000 0.250000
vt 0.589977 0.250000
vt 0.589977 0.500000
vt 0.625000 0.500000
vt 0.625000 0.250000
vt 0.589977 0.250000
vt 0.589977 0.500000
vt 0.625000 0.500000
vt 0.625000 0.265724
vt 0.589977 0.265724
vt 0.589977 0.265724
vt 0.589977 0.265724
vt 0.589977 0.265724
vt 0.359276 0.250000
vt 0.375000 0.265724
vt 0.359276 0.000000
vt 0.375000 0.984276
vt 0.589977 0.984276
vt 0.625000 0.984276
vt 0.640724 0.000000
vt 0.625000 0.265724
vt 0.640724 0.250000
vt 0.625000 0.265724
vt 0.625000 0.265724
vt 0.625000 0.472583
vt 0.589977 0.472583
vt 0.589977 0.472583
vt 0.589977 0.472583
vt 0.589977 0.472583
vt 0.152417 0.250000
vt 0.375000 0.472583
vt 0.152417 0.000000
vt 0.375000 0.777417
vt 0.589977 0.777417
vt 0.625000 0.777417
vt 0.847583 0.000000
vt 0.625000 0.472583
vt 0.847583 0.250000
vt 0.625000 0.472583
vt 0.625000 0.472583
vt 0.625000 0.265724
vt 0.625000 0.265724
vt 0.625000 0.472583
vt 0.625000 0.472583
vn 0.000000 0.000000 1.000000
vn 0.000000 0.000000 1.000000
vn 0.000000 0.000000 1.000000
vn 0.000000 0.000000 1.000000
vn 0.000000 1.000000 0.000000
vn 0.000000 1.000000 0.000000
vn 0.000000 1.000000 0.000000
vn 0.000000 1.000000 0.000000
vn 0.000000 0.000000 -1.000000
vn 0.000000 0.000000 -1.000000
vn 0.000000 0.000000 -1.000000
vn 0.000000 0.000000 -1.000000
vn 0.000000 -1.000000 0.000000
vn 0.000000 -1.000000 0.000000
vn 0.000000 -1.000000 0.000000
vn 0.000000 -1.000000 0.000000
vn 1.000000 0.000000 0.000000
vn 1.000000 0.000000 0.000000
vn 1.000000 0.000000 0.000000
vn 1.000000 0.000000 0.000000
vn -1.000000 0.000000 0.000000
vn -1.000000 0.000000 0.000000
vn -1.000000 0.000000 0.000000
vn -1.000000 0.000000 0.000000
vn 0.000000 0.000000 -1.000000
vn 0.000000 0.000000 -1.000000
vn 0.000000 -1.000000 0.000000
vn 0.000000 -1.000000 0.000000
vn 0.000000 0.000000 1.000000
vn 0.000000 0.000000 1.000000
vn 0.000000 1.000000 0.000000
vn 0.000000 1.000000 0.000000
vn 0.000000 1.000000 0.000000
vn 0.000000 1.000000 0.000000
vn -0.721166 -0.692762 0.000000
vn -0.721166 -0.692762 0.000000
vn -0.721166 -0.692762 0.000000
vn -0.721166 -0.692762 0.000000
vn 0.000000 0.000000 1.000000
vn 0.000000 0.000000 1.000000
vn 0.000000 0.000000 1.000000
vn 0.000000 0.000000 1.000000
vn 0.721166 0.692762 0.000000
vn 0.721166 0.692762 0.000000
vn 0.721166 0.692762 0.000000
vn 0.721167 0.692762 0.000000
vn 0.000000 0.000000 -1.000000
vn 0.000000 0.000000 -1.000000
vn 0.000000 0.000000 -1.000000
vn 0.000000 0.000000 -1.000000
vn 0.000000 0.000000 1.000000
vn 0.000000 0.000000 1.000000
vn -0.721166 -0.692762 0.000000
vn -0.721166 -0.692762 0.000000
vn 0.000000 0.000000 -1.000000
vn 0.000000 0.000000 -1.000000
vn 0.721167 0.692762 0.000000
vn 0.721166 0.692762 0.000000
vn 0.000000 0.000000 1.000000
vn 0.000000 0.000000 1.000000
vn -0.721167 -0.692762 0.000000
vn -0.721167 -0.692762 0.000000
vn 0.000000 0.000000 -1.000000
vn 0.000000 0.000000 -1.000000
vn 0.721167 0.692762 0.000000
vn 0.721166 0.692762 0.000000
vn 0.000000 1.000000 0.000000
vn 0.000000 1.000000 0.000000
vn -0.721166 -0.692762 -0.000000
vn -0.721167 -0.692762 0.000000
vn -0.721166 -0.692762 -0.000000
vn -0.721166 -0.692762 0.000000
vn 0.000000 1.000000 0.000000
vn 0.000000 1.000000 0.000000
vn -1.000000 0.000000 0.000000
vn -1.000000 0.000000 0.000000
vn 0.000000 -1.000000 0.000000
vn 0.000000 -1.000000 0.000000
vn 0.000000 -1.000000 0.000000
vn 1.000000 0.000000 0.000000
vn 1.000000 0.000000 0.000000
vn 0.721166 0.692762 0.000000
vn 0.721166 0.692762 0.000000
vn 0.721166 0.692762 0.000000
vn 0.721166 0.692762 0.000000
vn 0.721166 0.692762 0.000000
vn 0.721166 0.692762 0.000000
vn 0.721166 0.692762 0.000000
vn 0.721166 0.692762 0.000000
vn 0.000000 1.000000 0.000000
vn 0.000000 1.000000 0.000000
vn -0.721166 -0.692762 0.000000
vn -0.721166 -0.692762 0.000000
vn -0.721166 -0.692762 0.000000
vn -0.721166 -0.692762 0.000000
vn 0.000000 1.000000 0.000000
vn 0.000000 1.000000 0.000000
vn -1.000000 0.000000 0.000000
vn -1.000000 0.000000 0.000000
vn 0.000000 -1.000000 0.000000
vn 0.000000 -1.000000 0.000000
vn 0.000000 -1.000000 0.000000
vn 1.000000 0.000000 0.000000
vn 1.000000 0.000000 0.000000
vn 0.721166 0.692762 0.000000
vn 0.721166 0.692762 0.000000
vn 0.721166 0.692762 0.000000
vn 0.721166 0.692762 0.000000
vn -0.000001 0.000000 -1.000000
vn -0.000001 0.000000 -1.000000
vn -0.000001 0.000000 -1.000000
vn -0.000001 0.000000 -1.000000
vn -0.318775 0.947830 0.000000
vn -0.318775 0.947830 0.000000
vn -0.318775 0.947830 0.000000
vn -0.318775 0.947830 0.000000
vn 0.000000 -0.000000 1.000000
vn 0.000000 -0.000000 1.000000
vn 0.000000 -0.000000 1.000000
vn 0.000000 -0.000000 1.000000
vn 0.318775 -0.947830 0.000000
vn 0.318775 -0.947830 0.000000
vn 0.318775 -0.947830 0.000000
vn 0.318775 -0.947830 0.000000
s 1
g pCube2
usemtl lambert10SG
f 1/1/1 11/17/2 12/19/3 3/3/4
s 2
f 3/3/5 12/19/6 29/36/7 30/38/8
s 3
f 5/5/9 9/15/10 10/16/11 7/7/12
s 4
f 31/40/13 32/41/14 11/18/15 1/9/16
s 5
f 2/2/17 33/43/18 34/45/19 4/4/20
s 6
f 31/39/21 1/1/22 3/3/23 30/37/24
s 3
f 9/15/10 6/6/25 8/8/26 10/16/11
s 4
f 11/18/15 32/41/14 33/42/27 2/10/28
s 1
f 12/19/3 11/17/2 2/2/29 4/4/30
s 7
f 26/33/31 13/21/32 15/22/33 25/32/34
s 8
f 29/36/35 12/19/36 18/25/37 28/35/38
s 9
f 12/19/39 4/4/40 17/24/41 18/25/42
s 10
f 4/4/43 34/44/44 35/46/45 17/24/46
s 11
f 6/6/47 9/15/48 19/26/49 20/27/50
s 9
f 18/25/42 17/24/41 21/28/51 22/29/52
s 8
f 28/35/38 18/25/37 22/29/53 27/34/54
s 11
f 20/27/50 19/26/49 23/30/55 24/31/56
s 10
f 17/24/46 35/46/45 36/47/57 21/28/58
s 9
f 22/29/52 21/28/51 15/22/59 13/21/60
s 8
f 27/34/54 22/29/53 13/21/61 26/33/62
s 11
f 24/31/56 23/30/55 14/20/63 16/23/64
s 10
f 21/28/58 36/47/57 25/32/65 15/22/66
s 7
f 38/49/67 26/33/31 25/32/34 37/48/68
s 8
f 39/50/69 27/34/54 26/33/62 38/49/70
f 40/51/71 28/35/38 27/34/54 39/50/69
f 41/52/72 29/36/35 28/35/38 40/51/71
s 2
f 30/38/8 29/36/7 41/52/73 42/54/74
s 6
f 43/55/75 31/39/21 30/37/24 42/53/76
s 4
f 43/56/77 44/57/78 32/41/14 31/40/13
f 33/42/27 32/41/14 44/57/78 45/58/79
s 5
f 34/45/19 33/43/18 45/59/80 46/61/81
s 10
f 35/46/45 34/44/44 46/60/82 47/62/83
s off
f 50/64/84 49/65/85 51/66/86 52/67/87
s 10
f 25/32/65 36/47/57 48/63/88 37/48/89
s 7
f 14/20/90 38/49/67 37/48/68 16/23/91
s 8
f 23/30/92 39/50/69 38/49/70 14/20/93
f 19/26/94 40/51/71 39/50/69 23/30/92
f 9/15/95 41/52/72 40/51/71 19/26/94
s 2
f 42/54/74 41/52/73 9/15/96 5/5/97
s 6
f 7/13/98 43/55/75 42/53/76 5/14/99
s 4
f 7/7/100 10/16/101 44/57/78 43/56/77
f 45/58/79 44/57/78 10/16/101 8/8/102
s 5
f 46/61/81 45/59/80 8/11/103 6/12/104
s 10
f 47/62/83 46/60/82 6/6/105 20/27/106
f 48/63/88 47/62/83 20/27/106 24/31/107
f 37/48/89 48/63/88 24/31/107 16/23/108
s off
f 36/47/109 35/46/110 49/65/111 50/64/112
f 35/46/113 47/62/114 51/66/115 49/65/116
f 47/62/117 48/63/118 52/67/119 51/66/120
f 48/63/121 36/47/122 50/64/123 52/67/124
g default
v -2.011413 2.443839 2.109216
v -1.853225 2.353376 2.111331
v -0.643896 4.835530 2.126606
v -0.485707 4.745067 2.128722
v -0.589047 4.834359 -2.025776
v -0.430860 4.743897 -2.023660
v -1.956566 2.442668 -2.043163
v -1.798379 2.352206 -2.041048
vt 0.375000 0.000000
vt 0.625000 0.000000
vt 0.375000 0.250000
vt 0.625000 0.250000
vt 0.375000 0.500000
vt 0.625000 0.500000
vt 0.375000 0.750000
vt 0.625000 0.750000
vt 0.375000 1.000000
vt 0.625000 1.000000
vt 0.875000 0.000000
vt 0.875000 0.250000
vt 0.125000 0.000000
vt 0.125000 0.250000
vn -0.013209 0.000283 0.999913
vn -0.013209 0.000283 0.999913
vn -0.013209 0.000283 0.999913
vn -0.013209 0.000283 0.999913
vn 0.496352 0.868098 0.006312
vn 0.496352 0.868098 0.006312
vn 0.496352 0.868098 0.006312
vn 0.496352 0.868098 0.006312
vn 0.013210 -0.000283 -0.999913
vn 0.013210 -0.000283 -0.999913
vn 0.013210 -0.000283 -0.999913
vn 0.013210 -0.000283 -0.999913
vn -0.496356 -0.868096 -0.006311
vn -0.496356 -0.868096 -0.006311
vn -0.496356 -0.868096 -0.006311
vn -0.496356 -0.868096 -0.006311
vn 0.868017 -0.496398 0.011605
vn 0.868017 -0.496398 0.011605
vn 0.868017 -0.496398 0.011605
vn 0.868017 -0.496398 0.011605
vn -0.868017 0.496398 -0.011606
vn -0.868017 0.496398 -0.011606
vn -0.868017 0.496398 -0.011606
vn -0.868017 0.496398 -0.011606
s off
g pCube3
usemtl lambert8SG
f 53/68/125 54/69/126 56/71/127 55/70/128
f 55/70/129 56/71/130 58/73/131 57/72/132
f 57/72/133 58/73/134 60/75/135 59/74/136
f 59/74/137 60/75/138 54/77/139 53/76/140
f 54/69/141 60/78/142 58/79/143 56/71/144
f 59/80/145 53/68/146 55/70/147 57/81/148
g default
v -0.164222 2.991552 1.211595
v 0.880696 1.834408 1.214770
v -0.078890 3.068608 1.211515
v 0.966029 1.911464 1.214689
v -0.076938 3.064027 -1.100839
v 0.967981 1.906883 -1.097664
v -0.162270 2.986971 -1.100758
v 0.882649 1.829827 -1.097584
vt 0.375000 0.000000
vt 0.625000 0.000000
vt 0.375000 0.250000
vt 0.625000 0.250000
vt 0.375000 0.500000
vt 0.625000 0.500000
vt 0.375000 0.750000
vt 0.625000 0.750000
vt 0.375000 1.000000
vt 0.625000 1.000000
vt 0.875000 0.000000
vt 0.875000 0.250000
vt 0.125000 0.000000
vt 0.125000 0.250000
vn -0.000844 0.001981 0.999998
vn -0.000844 0.001981 0.999998
vn -0.000844 0.001981 0.999998
vn -0.000844 0.001981 0.999998
vn 0.742181 0.670199 -0.000701
vn 0.742181 0.670199 -0.000701
vn 0.742181 0.670199 -0.000701
vn 0.742181 0.670199 -0.000701
vn 0.000844 -0.001981 -0.999998
vn 0.000844 -0.001981 -0.999998
vn 0.000844 -0.001981 -0.999998
vn 0.000844 -0.001981 -0.999998
vn -0.742181 -0.670199 0.000701
vn -0.742181 -0.670199 0.000701
vn -0.742181 -0.670199 0.000701
vn -0.742181 -0.670199 0.000701
vn 0.670199 -0.742179 0.002036
vn 0.670199 -0.742179 0.002036
vn 0.670199 -0.742179 0.002036
vn 0.670199 -0.742179 0.002036
vn -0.670199 0.742179 -0.002036
vn -0.670199 0.742179 -0.002036
vn -0.670199 0.742179 -0.002036
vn -0.670199 0.742179 -0.002036
s off
g pCube4
usemtl lambert9SG
f 61/82/149 62/83/150 64/85/151 63/84/152
f 63/84/153 64/85/154 66/87/155 65/86/156
f 65/86/157 66/87/158 68/89/159 67/88/160
f 67/88/161 68/89/162 62/91/163 61/90/164
f 62/83/165 68/92/166 66/93/167 64/85/168
f 67/94/169 61/82/170 63/84/171 65/95/172
