# This file uses centimeters as units for non-parametric coordinates.

mtllib Stool.mtl
g default
v -1.168936 4.414548 1.168936
v 1.168936 4.414548 1.168936
v -1.168936 4.764515 1.168936
v 1.168936 4.764515 1.168936
v -1.168936 4.764515 -1.168936
v 1.168936 4.764515 -1.168936
v -1.168936 4.414548 -1.168936
v 1.168936 4.414548 -1.168936
v 1.168936 4.764515 -0.845182
v -1.168936 4.764515 -0.845182
v -1.168936 4.414548 -0.845182
v 1.168936 4.414548 -0.845182
v -0.858256 4.764515 1.168936
v -0.858256 4.764515 -0.845182
v -0.858256 4.764515 -1.168936
v -0.858256 4.414548 -1.168936
v -0.858256 4.414548 -0.845182
v -0.858256 4.414548 1.168936
v 0.962535 4.764515 1.168936
v 0.962535 4.764515 -0.845182
v 0.962535 4.764515 -1.168936
v 0.962535 4.414548 -1.168936
v 0.962535 4.414548 -0.845182
v 0.962535 4.414548 1.168936
v 0.962535 4.764515 0.952073
v -0.858256 4.764515 0.952073
v -1.168936 4.764515 0.952073
v -1.168936 4.414548 0.952073
v -0.858256 4.414548 0.952073
v 0.962535 4.414548 0.952073
v 1.168936 4.414548 0.952073
v 1.168936 4.764515 0.952073
v -1.168936 1.697820 0.952073
v -0.858256 1.697820 0.952073
v -0.858256 1.697820 1.168936
v -1.168936 1.697820 1.168936
v -1.168936 1.697820 -1.168936
v -0.858256 1.697820 -1.168936
v -0.858256 1.697820 -0.845182
v -1.168936 1.697820 -0.845182
v 0.962535 1.697820 -1.168936
v 0.962535 1.697820 -0.845182
v 1.168936 1.697820 -1.168936
v 1.168936 1.697820 -0.845182
v 0.962535 1.697820 0.952073
v 0.962535 1.697820 1.168936
v 1.168936 1.697820 0.952073
v 1.168936 1.697820 1.168936
v -1.168936 7.486659 1.168936
v -0.858256 7.486659 1.168936
v -0.858256 7.486659 0.952073
v -1.168936 7.486659 0.952073
v 0.962535 7.486659 1.168936
v 1.168936 7.486659 1.168936
v 1.168936 7.486659 0.952073
v 0.962535 7.486659 0.952073
v 0.052139 6.548231 0.952073
v 0.052139 6.548231 1.168936
v -1.168936 6.538447 1.168936
v -1.168936 6.538447 0.952073
v 1.168936 6.558015 0.952073
v 1.168936 6.558015 1.168936
v -0.858256 6.538447 0.952073
v -0.858256 6.538447 1.168936
v -0.858256 7.486659 0.952073
v -0.858256 7.486659 1.168936
v 0.962535 6.558015 1.168936
v 0.962535 6.558015 0.952073
v 0.962535 7.486659 1.168936
v 0.962535 7.486659 0.952073
v -0.858256 6.538447 0.952073
v -0.858256 6.538447 1.168936
v -0.858256 7.486659 0.952073
v -0.858256 7.486659 1.168936
v 0.962535 6.558015 1.168936
v 0.962535 6.558015 0.952073
v 0.962535 7.486659 1.168936
v 0.962535 7.486659 0.952073
v 0.052139 6.548231 0.952073
v 0.052139 6.548231 1.168936
v 0.052139 7.486659 0.952073
v 0.052139 7.486659 1.168936
v -1.168936 -0.084105 0.952073
v -0.858256 -0.084105 0.952073
v -0.858256 -0.084105 1.168936
v -1.168936 -0.084105 1.168936
v -1.168936 -0.084105 -1.168936
v -0.858256 -0.084105 -1.168936
v -0.858256 -0.084105 -0.845182
v -1.168936 -0.084105 -0.845182
v 0.962535 -0.084105 -1.168936
v 0.962535 -0.084105 -0.845182
v 1.168936 -0.084105 -1.168936
v 1.168936 -0.084105 -0.845182
v 0.962535 -0.084105 0.952073
v 0.962535 -0.084105 1.168936
v 1.168936 -0.084105 0.952073
v 1.168936 -0.084105 1.168936
vt 0.375000 0.000000
vt 0.625000 0.000000
vt 0.375000 0.250000
vt 0.625000 0.250000
vt 0.375000 0.500000
vt 0.625000 0.500000
vt 0.375000 0.750000
vt 0.625000 0.750000
vt 0.375000 1.000000
vt 0.625000 1.000000
vt 0.875000 0.000000
vt 0.875000 0.250000
vt 0.125000 0.000000
vt 0.125000 0.250000
vt 0.625000 0.465379
vt 0.840379 0.250000
vt 0.159621 0.250000
vt 0.375000 0.465379
vt 0.159621 0.000000
vt 0.375000 0.784621
vt 0.625000 0.784621
vt 0.840379 0.000000
vt 0.408222 0.250000
vt 0.408222 0.465379
vt 0.408222 0.500000
vt 0.408222 0.750000
vt 0.408222 0.784621
vt 0.408222 0.000000
vt 0.408222 1.000000
vt 0.602929 0.250000
vt 0.602929 0.465379
vt 0.602929 0.500000
vt 0.602929 0.750000
vt 0.602929 0.784621
vt 0.602929 0.000000
vt 0.602929 1.000000
vt 0.602929 0.273190
vt 0.408222 0.273190
vt 0.351810 0.250000
vt 0.375000 0.273190
vt 0.351810 0.000000
vt 0.375000 0.976810
vt 0.408222 0.976810
vt 0.602929 0.976810
vt 0.625000 0.976810
vt 0.648190 0.000000
vt 0.625000 0.273190
vt 0.648190 0.250000
vt 0.375000 0.976810
vt 0.408222 0.976810
vt 0.408222 1.000000
vt 0.375000 1.000000
vt 0.375000 0.750000
vt 0.408222 0.750000
vt 0.408222 0.784621
vt 0.375000 0.784621
vt 0.602929 0.784621
vt 0.602929 0.750000
vt 0.625000 0.750000
vt 0.625000 0.784621
vt 0.602929 1.000000
vt 0.602929 0.976810
vt 0.625000 0.976810
vt 0.625000 1.000000
vt 0.375000 0.250000
vt 0.408222 0.250000
vt 0.408222 0.273190
vt 0.375000 0.273190
vt 0.602929 0.250000
vt 0.625000 0.250000
vt 0.625000 0.273190
vt 0.602929 0.273190
vt 0.408222 0.273190
vt 0.408222 0.250000
vt 0.375000 0.250000
vt 0.375000 0.273190
vt 0.602929 0.250000
vt 0.602929 0.273190
vt 0.625000 0.273190
vt 0.625000 0.250000
vt 0.408222 0.250000
vt 0.408222 0.273190
vt 0.408222 0.273190
vt 0.408222 0.250000
vt 0.602929 0.273190
vt 0.602929 0.250000
vt 0.602929 0.250000
vt 0.602929 0.273190
vt 0.408222 0.250000
vt 0.408222 0.273190
vt 0.408222 0.273190
vt 0.408222 0.250000
vt 0.602929 0.273190
vt 0.602929 0.250000
vt 0.602929 0.250000
vt 0.602929 0.273190
vt 0.408222 0.250000
vt 0.408222 0.273190
vt 0.408222 0.273190
vt 0.408222 0.250000
vt 0.602929 0.273190
vt 0.602929 0.250000
vt 0.602929 0.250000
vt 0.602929 0.273190
vt 0.375000 0.976810
vt 0.408222 0.976810
vt 0.408222 1.000000
vt 0.375000 1.000000
vt 0.375000 0.750000
vt 0.408222 0.750000
vt 0.408222 0.784621
vt 0.375000 0.784621
vt 0.602929 0.784621
vt 0.602929 0.750000
vt 0.625000 0.750000
vt 0.625000 0.784621
vt 0.602929 1.000000
vt 0.602929 0.976810
vt 0.625000 0.976810
vt 0.625000 1.000000
vn 0.000000 0.000000 1.000000
vn 0.000000 0.000000 1.000000
vn 0.000000 0.000000 1.000000
vn 0.000000 0.000000 1.000000
vn 0.000000 1.000000 0.000000
vn 0.000000 1.000000 0.000000
vn 0.000000 1.000000 0.000000
vn 0.000000 1.000000 0.000000
vn 0.000000 0.000000 -1.000000
vn 0.000000 0.000000 -1.000000
vn 0.000000 0.000000 -1.000000
vn 0.000000 0.000000 -1.000000
vn 0.000000 -1.000000 0.000000
vn 0.000000 -1.000000 0.000000
vn 0.000000 -1.000000 0.000000
vn 0.000000 -1.000000 0.000000
vn 1.000000 0.000000 0.000000
vn 1.000000 0.000000 0.000000
vn 1.000000 0.000000 0.000000
vn 1.000000 0.000000 0.000000
vn -1.000000 0.000000 0.000000
vn -1.000000 0.000000 0.000000
vn -1.000000 0.000000 0.000000
vn -1.000000 0.000000 0.000000
vn 0.000000 1.000000 0.000000
vn 0.000000 1.000000 0.000000
vn 0.000000 1.000000 0.000000
vn 0.000000 1.000000 0.000000
vn -1.000000 0.000000 0.000000
vn -1.000000 0.000000 0.000000
vn -1.000000 0.000000 0.000000
vn -1.000000 0.000000 0.000000
vn 0.000000 -1.000000 0.000000
vn 0.000000 -1.000000 0.000000
vn 0.000000 -1.000000 0.000000
vn 0.000000 -1.000000 0.000000
vn 1.000000 0.000000 0.000000
vn 1.000000 0.000000 0.000000
vn 1.000000 0.000000 0.000000
vn 1.000000 0.000000 0.000000
vn 0.000000 1.000000 0.000000
vn 0.000000 1.000000 0.000000
vn 0.000000 1.000000 0.000000
vn 0.000000 1.000000 0.000000
vn 0.000000 1.000000 0.000000
vn 0.000000 1.000000 0.000000
vn 0.000000 0.000000 -1.000000
vn 0.000000 0.000000 -1.000000
vn 0.000000 -1.000000 0.000000
vn 0.000000 -1.000000 0.000000
vn 0.000000 -1.000000 0.000000
vn 0.000000 -1.000000 0.000000
vn 0.000000 -1.000000 0.000000
vn 0.000000 -1.000000 0.000000
vn 0.000000 -1.000000 0.000000
vn 0.000000 -1.000000 0.000000
vn 0.000000 0.000000 1.000000
vn 0.000000 0.000000 1.000000
vn 0.000000 1.000000 0.000000
vn 0.000000 1.000000 0.000000
vn 0.000000 1.000000 0.000000
vn 0.000000 1.000000 0.000000
vn 0.000000 1.000000 0.000000
vn 0.000000 1.000000 0.000000
vn 0.000000 0.000000 -1.000000
vn 0.000000 0.000000 -1.000000
vn 0.000000 -1.000000 0.000000
vn 0.000000 -1.000000 0.000000
vn 0.000000 -1.000000 0.000000
vn 0.000000 -1.000000 0.000000
vn 0.000000 -1.000000 0.000000
vn 0.000000 -1.000000 0.000000
vn 0.000000 -1.000000 0.000000
vn 0.000000 -1.000000 0.000000
vn 0.000000 0.000000 1.000000
vn 0.000000 0.000000 1.000000
vn 0.000000 1.000000 0.000000
vn 0.000000 -1.000000 0.000000
vn 0.000000 -1.000000 0.000000
vn 0.000000 -1.000000 0.000000
vn 0.000000 -1.000000 0.000000
vn 0.000000 1.000000 0.000000
vn 0.000000 0.000000 -1.000000
vn 0.000000 0.000000 -1.000000
vn 0.000000 0.000000 -1.000000
vn 0.000000 0.000000 -1.000000
vn 1.000000 0.000000 0.000000
vn 1.000000 0.000000 0.000000
vn 1.000000 0.000000 0.000000
vn 1.000000 0.000000 0.000000
vn 0.000000 0.000000 1.000000
vn 0.000000 0.000000 1.000000
vn 0.000000 0.000000 1.000000
vn 0.000000 0.000000 1.000000
vn -1.000000 0.000000 0.000000
vn -1.000000 0.000000 0.000000
vn -1.000000 0.000000 0.000000
vn -1.000000 0.000000 0.000000
vn 0.000000 0.000000 -1.000000
vn 0.000000 0.000000 -1.000000
vn 0.000000 0.000000 -1.000000
vn 0.000000 0.000000 -1.000000
vn 1.000000 0.000000 0.000000
vn 1.000000 0.000000 0.000000
vn 1.000000 0.000000 0.000000
vn 1.000000 0.000000 0.000000
vn 0.000000 0.000000 1.000000
vn 0.000000 0.000000 1.000000
vn 0.000000 0.000000 1.000000
vn 0.000000 0.000000 1.000000
vn -1.000000 0.000000 0.000000
vn -1.000000 0.000000 0.000000
vn -1.000000 0.000000 0.000000
vn -1.000000 0.000000 0.000000
vn -1.000000 0.000000 0.000000
vn -1.000000 0.000000 0.000000
vn -1.000000 0.000000 0.000000
vn -1.000000 0.000000 0.000000
vn 0.000000 0.000000 -1.000000
vn 0.000000 0.000000 -1.000000
vn 0.000000 0.000000 -1.000000
vn 0.000000 0.000000 -1.000000
vn 1.000000 0.000000 0.000000
vn 1.000000 0.000000 0.000000
vn 1.000000 0.000000 0.000000
vn 1.000000 0.000000 0.000000
vn 0.000000 0.000000 1.000000
vn 0.000000 0.000000 1.000000
vn 0.000000 0.000000 1.000000
vn 0.000000 0.000000 1.000000
vn -1.000000 0.000000 0.000000
vn -1.000000 0.000000 0.000000
vn -1.000000 0.000000 0.000000
vn -1.000000 0.000000 0.000000
vn 0.000000 0.000000 -1.000000
vn 0.000000 0.000000 -1.000000
vn 0.000000 0.000000 -1.000000
vn 0.000000 0.000000 -1.000000
vn 1.000000 0.000000 0.000000
vn 1.000000 0.000000 0.000000
vn 1.000000 0.000000 0.000000
vn 1.000000 0.000000 0.000000
vn 0.000000 0.000000 1.000000
vn 0.000000 0.000000 1.000000
vn 0.000000 0.000000 1.000000
vn 0.000000 0.000000 1.000000
vn 0.000000 0.000000 1.000000
vn 0.000000 0.000000 1.000000
vn 0.000000 0.000000 1.000000
vn 0.000000 0.000000 1.000000
vn 0.890694 -0.454604 0.000000
vn 0.890694 -0.454604 0.000000
vn 0.890694 -0.454604 0.000000
vn 0.890694 -0.454604 0.000000
vn 0.000000 0.000000 -1.000000
vn 0.000000 0.000000 -1.000000
vn 0.000000 0.000000 -1.000000
vn 0.000000 0.000000 -1.000000
vn -1.000000 0.000000 0.000000
vn -1.000000 0.000000 0.000000
vn -1.000000 0.000000 0.000000
vn -1.000000 0.000000 0.000000
vn 0.000000 0.000000 1.000000
vn 0.000000 0.000000 1.000000
vn 0.000000 0.000000 1.000000
vn 0.000000 0.000000 1.000000
vn 1.000000 0.000000 0.000000
vn 1.000000 0.000000 0.000000
vn 1.000000 0.000000 0.000000
vn 1.000000 0.000000 0.000000
vn -0.000000 -0.000000 -1.000000
vn -0.000000 -0.000000 -1.000000
vn -0.000000 -0.000000 -1.000000
vn -0.000000 -0.000000 -1.000000
vn -0.890694 -0.454604 0.000000
vn -0.890694 -0.454604 0.000000
vn -0.890694 -0.454604 0.000000
vn -0.890694 -0.454604 0.000000
vn 1.000000 0.000000 0.000000
vn 1.000000 0.000000 0.000000
vn 1.000000 0.000000 0.000000
vn 1.000000 0.000000 0.000000
vn 0.000000 0.000000 0.000000
vn 0.000000 0.000000 1.000000
vn 0.000000 0.000000 1.000000
vn 0.000000 0.000000 0.000000
vn -1.000000 0.000000 0.000000
vn -1.000000 0.000000 0.000000
vn -1.000000 0.000000 0.000000
vn -1.000000 0.000000 0.000000
vn -1.000000 0.000000 0.000000
vn -1.000000 0.000000 0.000000
vn 0.000000 0.000000 -0.000000
vn 0.000000 0.000000 -1.000000
vn 0.000000 0.000000 -1.000000
vn 0.000000 0.000000 -0.000000
vn 1.000000 0.000000 0.000000
vn 1.000000 0.000000 0.000000
vn -0.010746 0.999942 0.000000
vn -0.010746 0.999942 0.000000
vn -0.010746 0.999942 0.000000
vn -0.010746 0.999942 0.000000
vn 0.000000 -0.000000 -0.000000
vn 0.000000 -0.000000 -0.000000
vn 0.000000 -0.000000 -1.000000
vn 0.000000 -0.000000 -1.000000
vn 0.000000 0.000000 0.000000
vn 0.000000 0.000000 0.000000
vn 0.000000 0.000000 0.000000
vn 0.000000 0.000000 0.000000
vn -0.010747 0.999942 0.000000
vn -0.010747 0.999942 0.000000
vn -0.010747 0.999942 0.000000
vn -0.010747 0.999942 0.000000
vn 0.000000 0.000000 0.000000
vn 0.000000 0.000000 0.000000
vn 0.000000 0.000000 1.000000
vn 0.000000 0.000000 1.000000
vn 0.000000 0.000000 0.000000
vn 0.000000 0.000000 0.000000
vn 0.000000 0.000000 0.000000
vn 0.000000 0.000000 0.000000
vn 0.000000 0.000000 0.000000
vn 0.000000 0.000000 0.000000
vn 0.000000 0.000000 0.000000
vn 0.000000 0.000000 0.000000
vn 0.000000 0.000000 0.000000
vn 0.000000 0.000000 0.000000
vn 0.000000 0.000000 0.000000
vn 0.000000 0.000000 0.000000
vn 0.000000 0.000000 0.000000
vn 0.000000 0.000000 0.000000
vn 0.000000 0.000000 0.000000
vn 0.000000 0.000000 0.000000
vn 0.000000 0.000000 0.000000
vn 0.000000 0.000000 0.000000
vn 0.000000 0.000000 0.000000
vn 0.000000 0.000000 0.000000
vn 0.000000 0.000000 0.000000
vn 0.000000 0.000000 0.000000
vn 0.000000 0.000000 0.000000
vn 0.000000 0.000000 0.000000
vn 0.000000 0.000000 0.000000
vn 0.000000 0.000000 0.000000
vn 0.000000 0.000000 0.000000
vn 0.000000 0.000000 0.000000
vn 0.000000 0.000000 0.000000
vn 0.000000 0.000000 0.000000
vn 0.000000 0.000000 0.000000
vn 0.000000 0.000000 0.000000
vn 0.000000 0.000000 0.000000
vn 0.000000 0.000000 0.000000
vn 0.000000 0.000000 0.000000
vn 0.000000 0.000000 0.000000
vn 0.010746 -0.999942 0.000000
vn 0.010746 -0.999942 0.000000
vn 0.010746 -0.999942 0.000000
vn 0.010746 -0.999942 0.000000
vn -0.000000 -0.000000 -1.000000
vn -0.000000 -0.000000 -1.000000
vn -0.000000 -0.000000 -1.000000
vn -0.000000 -0.000000 -1.000000
vn 0.000000 1.000000 0.000000
vn 0.000000 1.000000 0.000000
vn 0.000000 1.000000 0.000000
vn 0.000000 1.000000 0.000000
vn 0.000000 0.000000 1.000000
vn 0.000000 0.000000 1.000000
vn 0.000000 0.000000 1.000000
vn 0.000000 0.000000 1.000000
vn 0.010747 -0.999942 0.000000
vn 0.010747 -0.999942 0.000000
vn 0.010747 -0.999942 0.000000
vn 0.010747 -0.999942 0.000000
vn 0.000000 0.000000 1.000000
vn 0.000000 0.000000 1.000000
vn 0.000000 0.000000 1.000000
vn 0.000000 0.000000 1.000000
vn 0.000000 1.000000 0.000000
vn 0.000000 1.000000 0.000000
vn 0.000000 1.000000 0.000000
vn 0.000000 1.000000 0.000000
vn -0.000000 0.000000 -1.000000
vn -0.000000 0.000000 -1.000000
vn -0.000000 0.000000 -1.000000
vn -0.000000 0.000000 -1.000000
vn 0.000000 0.000000 -1.000000
vn 0.000000 0.000000 -1.000000
vn 0.000000 0.000000 -1.000000
vn 0.000000 0.000000 -1.000000
vn 1.000000 0.000000 0.000000
vn 1.000000 0.000000 0.000000
vn 1.000000 0.000000 0.000000
vn 1.000000 0.000000 0.000000
vn 0.000000 0.000000 1.000000
vn 0.000000 0.000000 1.000000
vn 0.000000 0.000000 1.000000
vn 0.000000 0.000000 1.000000
vn -1.000000 0.000000 0.000000
vn -1.000000 0.000000 0.000000
vn -1.000000 0.000000 0.000000
vn -1.000000 0.000000 0.000000
vn 0.000000 0.000000 -1.000000
vn 0.000000 0.000000 -1.000000
vn 0.000000 0.000000 -1.000000
vn 0.000000 0.000000 -1.000000
vn 1.000000 0.000000 0.000000
vn 1.000000 0.000000 0.000000
vn 1.000000 0.000000 0.000000
vn 1.000000 0.000000 0.000000
vn 0.000000 0.000000 1.000000
vn 0.000000 0.000000 1.000000
vn 0.000000 0.000000 1.000000
vn 0.000000 0.000000 1.000000
vn -1.000000 0.000000 0.000000
vn -1.000000 0.000000 0.000000
vn -1.000000 0.000000 0.000000
vn -1.000000 0.000000 0.000000
vn -1.000000 0.000000 0.000000
vn -1.000000 0.000000 0.000000
vn -1.000000 0.000000 0.000000
vn -1.000000 0.000000 0.000000
vn 0.000000 0.000000 -1.000000
vn 0.000000 0.000000 -1.000000
vn 0.000000 0.000000 -1.000000
vn 0.000000 0.000000 -1.000000
vn 1.000000 0.000000 0.000000
vn 1.000000 0.000000 0.000000
vn 1.000000 0.000000 0.000000
vn 1.000000 0.000000 0.000000
vn 0.000000 0.000000 1.000000
vn 0.000000 0.000000 1.000000
vn 0.000000 0.000000 1.000000
vn 0.000000 0.000000 1.000000
vn -1.000000 0.000000 0.000000
vn -1.000000 0.000000 0.000000
vn -1.000000 0.000000 0.000000
vn -1.000000 0.000000 0.000000
vn 0.000000 0.000000 -1.000000
vn 0.000000 0.000000 -1.000000
vn 0.000000 0.000000 -1.000000
vn 0.000000 0.000000 -1.000000
vn 1.000000 0.000000 0.000000
vn 1.000000 0.000000 0.000000
vn 1.000000 0.000000 0.000000
vn 1.000000 0.000000 0.000000
vn 0.000000 0.000000 1.000000
vn 0.000000 0.000000 1.000000
vn 0.000000 0.000000 1.000000
vn 0.000000 0.000000 1.000000
s 1
g pCube1
usemtl initialShadingGroup
f 1/1/1 18/28/2 13/23/3 3/3/4
s off
f 49/65/5 50/66/6 51/67/7 52/68/8
s 2
f 5/5/9 15/25/10 16/26/11 7/7/12
s off
f 83/105/13 84/106/14 85/107/15 86/108/16
s 3
f 2/2/17 31/46/18 32/48/19 4/4/20
s 4
f 28/41/21 1/1/22 3/3/23 27/39/24
s 5
f 10/18/25 14/24/26 15/25/27 5/5/28
s 4
f 7/13/29 11/19/30 10/17/31 5/14/32
s off
f 87/109/33 88/110/34 89/111/35 90/112/36
s 3
f 9/16/37 12/22/38 8/11/39 6/12/40
s 5
f 13/23/41 19/30/42 25/37/43 26/38/44
f 15/25/27 14/24/26 20/31/45 21/32/46
s 2
f 16/26/11 15/25/10 21/32/47 22/33/48
s 7
f 17/27/49 16/26/50 22/33/51 23/34/52
f 18/29/53 29/43/54 30/44/55 24/36/56
s 1
f 13/23/3 18/28/2 24/35/57 19/30/58
s off
f 53/69/59 54/70/60 55/71/61 56/72/62
s 5
f 21/32/46 20/31/45 9/15/63 6/6/64
s 2
f 22/33/48 21/32/47 6/6/65 8/8/66
s off
f 92/113/67 91/114/68 93/115/69 94/116/70
f 96/117/71 95/118/72 97/119/73 98/120/74
s 1
f 19/30/58 24/35/57 2/2/75 4/4/76
s 5
f 26/38/44 25/37/43 20/31/45 14/24/26
f 27/40/77 26/38/44 14/24/26 10/18/25
s 4
f 11/19/30 28/41/21 27/39/24 10/17/31
s 7
f 11/20/78 17/27/49 29/43/54 28/42/79
f 30/44/55 29/43/54 17/27/49 23/34/52
f 31/45/80 30/44/55 23/34/52 12/21/81
s 3
f 32/48/19 31/46/18 12/22/38 9/16/37
s 5
f 25/37/43 32/47/82 9/15/63 20/31/45
s off
f 28/42/83 29/43/84 34/50/85 33/49/86
f 29/43/87 18/29/88 35/51/89 34/50/90
f 18/29/91 1/9/92 36/52/93 35/51/94
f 1/9/95 28/42/96 33/49/97 36/52/98
f 7/7/99 16/26/100 38/54/101 37/53/102
f 16/26/103 17/27/104 39/55/105 38/54/106
f 17/27/107 11/20/108 40/56/109 39/55/110
f 11/20/111 7/7/112 37/53/113 40/56/114
f 23/34/115 22/33/116 41/58/117 42/57/118
f 22/33/119 8/8/120 43/59/121 41/58/122
f 8/8/123 12/21/124 44/60/125 43/59/126
f 12/21/127 23/34/128 42/57/129 44/60/130
f 24/36/131 30/44/132 45/62/133 46/61/134
f 30/44/135 31/45/136 47/63/137 45/62/138
f 31/45/139 2/10/140 48/64/141 47/63/142
f 2/10/143 24/36/144 46/61/145 48/64/146
s 8
f 3/3/147 13/23/148 58/74/149 59/75/150
s off
f 13/23/151 26/38/152 57/73/153 58/74/154
s 9
f 26/38/155 27/40/156 60/76/157 57/73/158
s 10
f 27/40/159 3/3/160 59/75/161 60/76/162
s 11
f 19/30/163 4/4/164 62/80/165 58/77/166
s 12
f 4/4/167 32/47/168 61/79/169 62/80/170
s 13
f 32/47/171 25/37/172 57/78/173 61/79/174
s off
f 25/37/175 19/30/176 58/77/177 57/78/178
f 80/97/179 79/98/180 81/99/181 82/100/182
s 8
f 50/66/183 49/65/184 59/75/150 58/74/149 64/81/185 66/84/186
s 10
f 60/76/162 59/75/161 49/65/187 52/68/188
s off
f 79/101/189 80/102/190 82/103/191 81/104/192
s 13
f 56/72/193 55/71/194 61/79/174 57/78/173 68/85/195 70/88/196
s 12
f 62/80/170 61/79/169 55/71/197 54/70/198
s off
f 58/74/199 57/73/200 63/82/201 64/81/202
s 9
f 51/67/203 65/83/204 63/82/205 57/73/158 60/76/157 52/68/206
s off
f 51/67/207 50/66/208 66/84/209 65/83/210
f 57/78/211 58/77/212 67/86/213 68/85/214
s 11
f 53/69/215 69/87/216 67/86/217 58/77/166 62/80/165 54/70/218
s off
f 53/69/219 56/72/220 70/88/221 69/87/222
f 64/81/223 63/82/224 71/90/225 72/89/226
f 63/82/227 65/83/228 73/91/229 71/90/230
f 65/83/231 66/84/232 74/92/233 73/91/234
f 66/84/235 64/81/236 72/89/237 74/92/238
f 68/85/239 67/86/240 75/94/241 76/93/242
f 67/86/243 69/87/244 77/95/245 75/94/246
f 69/87/247 70/88/248 78/96/249 77/95/250
f 70/88/251 68/85/252 76/93/253 78/96/254
f 72/89/255 71/90/256 79/98/257 80/97/258
f 71/90/259 73/91/260 81/99/261 79/98/262
f 73/91/263 74/92/264 82/100/265 81/99/266
f 74/92/267 72/89/268 80/97/269 82/100/270
f 76/93/271 75/94/272 80/102/273 79/101/274
f 75/94/275 77/95/276 82/103/277 80/102/278
f 77/95/279 78/96/280 81/104/281 82/103/282
f 78/96/283 76/93/284 79/101/285 81/104/286
f 33/49/287 34/50/288 84/106/289 83/105/290
f 34/50/291 35/51/292 85/107/293 84/106/294
f 35/51/295 36/52/296 86/108/297 85/107/298
f 36/52/299 33/49/300 83/105/301 86/108/302
f 37/53/303 38/54/304 88/110/305 87/109/306
f 38/54/307 39/55/308 89/111/309 88/110/310
f 39/55/311 40/56/312 90/112/313 89/111/314
f 40/56/315 37/53/316 87/109/317 90/112/318
f 42/57/319 41/58/320 91/114/321 92/113/322
f 41/58/323 43/59/324 93/115/325 91/114/326
f 43/59/327 44/60/328 94/116/329 93/115/330
f 44/60/331 42/57/332 92/113/333 94/116/334
f 46/61/335 45/62/336 95/118/337 96/117/338
f 45/62/339 47/63/340 97/119/341 95/118/342
f 47/63/343 48/64/344 98/120/345 97/119/346
f 48/64/347 46/61/348 96/117/349 98/120/350
