# This file uses centimeters as units for non-parametric coordinates.

mtllib Trash Can.mtl
g default
v -1.001434 0.124018 0.949938
v 1.001434 0.124018 0.949938
v -1.001434 5.787468 0.949938
v 1.001434 5.787468 0.949938
v -1.001434 5.787468 -0.949938
v 1.001434 5.787468 -0.949938
v -1.001434 0.124018 -0.949938
v 1.001434 0.124018 -0.949938
v -1.001434 4.638945 0.949938
v -1.001434 4.638945 -0.949938
v 1.001434 4.638945 -0.949938
v 1.001434 4.638945 0.949938
v -1.001434 3.509186 0.949938
v -1.001434 3.509186 -0.949938
v 1.001434 3.509186 -0.949938
v 1.001434 3.509186 0.949938
v -0.889846 4.638945 0.949938
v -0.889846 3.509186 0.949938
v -0.889846 0.124018 0.949938
v -0.889846 0.124018 -0.949938
v -0.889846 3.509186 -0.949938
v -0.889846 4.638945 -0.949938
v -0.889846 5.787468 -0.949938
v -0.889846 5.787468 0.949938
v 0.877397 5.787468 0.949938
v 0.877397 5.787468 -0.949938
v 0.877397 4.638945 -0.949938
v 0.877397 3.509186 -0.949938
v 0.877397 0.124018 -0.949938
v 0.877397 0.124018 0.949938
v 0.877397 3.509186 0.949938
v 0.877397 4.638945 0.949938
v 0.877397 3.509186 0.921275
v -0.889846 3.509186 0.921275
v 0.877397 4.638945 0.921275
v -0.889846 4.638945 0.921275
vt 0.375000 0.000000
vt 0.625000 0.000000
vt 0.375000 0.250000
vt 0.625000 0.250000
vt 0.375000 0.500000
vt 0.625000 0.500000
vt 0.375000 0.750000
vt 0.625000 0.750000
vt 0.375000 1.000000
vt 0.625000 1.000000
vt 0.875000 0.000000
vt 0.875000 0.250000
vt 0.125000 0.000000
vt 0.125000 0.250000
vt 0.375000 0.199301
vt 0.125000 0.199301
vt 0.375000 0.550699
vt 0.625000 0.550699
vt 0.875000 0.199301
vt 0.625000 0.199301
vt 0.375000 0.149430
vt 0.125000 0.149430
vt 0.375000 0.600570
vt 0.625000 0.600570
vt 0.875000 0.149430
vt 0.625000 0.149430
vt 0.388929 0.199301
vt 0.388929 0.149430
vt 0.388929 0.000000
vt 0.388929 1.000000
vt 0.388929 0.750000
vt 0.388929 0.600570
vt 0.388929 0.550699
vt 0.388929 0.500000
vt 0.388929 0.250000
vt 0.609518 0.250000
vt 0.609518 0.500000
vt 0.609518 0.550699
vt 0.609518 0.600570
vt 0.609518 0.750000
vt 0.609518 0.000000
vt 0.609518 1.000000
vt 0.609518 0.149430
vt 0.609518 0.199301
vt 0.388929 0.149430
vt 0.609518 0.149430
vt 0.609518 0.199301
vt 0.388929 0.199301
vn 0.000000 0.000000 1.000000
vn 0.000000 0.000000 1.000000
vn 0.000000 0.000000 1.000000
vn 0.000000 0.000000 1.000000
vn 0.000000 1.000000 0.000000
vn 0.000000 1.000000 0.000000
vn 0.000000 1.000000 0.000000
vn 0.000000 1.000000 0.000000
vn 0.000000 0.000000 -1.000000
vn 0.000000 0.000000 -1.000000
vn 0.000000 0.000000 -1.000000
vn 0.000000 0.000000 -1.000000
vn 0.000000 -1.000000 0.000000
vn 0.000000 -1.000000 0.000000
vn 0.000000 -1.000000 0.000000
vn 0.000000 -1.000000 0.000000
vn 1.000000 0.000000 0.000000
vn 1.000000 0.000000 0.000000
vn 1.000000 0.000000 0.000000
vn 1.000000 0.000000 0.000000
vn -1.000000 0.000000 0.000000
vn -1.000000 0.000000 0.000000
vn -1.000000 0.000000 0.000000
vn -1.000000 0.000000 0.000000
vn -1.000000 0.000000 0.000000
vn -1.000000 0.000000 0.000000
vn -1.000000 0.000000 0.000000
vn -1.000000 0.000000 0.000000
vn 0.000000 0.000000 -1.000000
vn 0.000000 0.000000 -1.000000
vn 0.000000 0.000000 -1.000000
vn 0.000000 0.000000 -1.000000
vn 1.000000 0.000000 0.000000
vn 1.000000 0.000000 0.000000
vn 1.000000 0.000000 0.000000
vn 1.000000 0.000000 0.000000
vn 0.000000 0.000000 1.000000
vn 0.000000 0.000000 1.000000
vn 0.000000 0.000000 1.000000
vn 0.000000 0.000000 1.000000
vn 0.000000 0.000000 1.000000
vn 0.000000 0.000000 1.000000
vn 0.000000 0.000000 1.000000
vn 0.000000 0.000000 1.000000
vn 0.000000 0.000000 1.000000
vn 0.000000 0.000000 1.000000
vn 0.000000 0.000000 1.000000
vn 0.000000 -1.000000 0.000000
vn 0.000000 -1.000000 0.000000
vn 0.000000 0.000000 -1.000000
vn 0.000000 0.000000 -1.000000
vn 0.000000 0.000000 -1.000000
vn 0.000000 0.000000 -1.000000
vn 0.000000 1.000000 0.000000
vn 0.000000 1.000000 0.000000
vn 0.000000 0.000000 1.000000
vn 0.000000 1.000000 0.000000
vn 0.000000 1.000000 0.000000
vn 0.000000 0.000000 -1.000000
vn 0.000000 0.000000 -1.000000
vn 0.000000 0.000000 -1.000000
vn 0.000000 0.000000 -1.000000
vn 0.000000 -1.000000 0.000000
vn 0.000000 -1.000000 0.000000
vn 0.000000 0.000000 1.000000
vn 0.000000 0.000000 1.000000
vn 0.000000 0.000000 1.000000
vn 0.000000 0.000000 1.000000
vn 0.000000 1.000000 0.000000
vn 0.000000 1.000000 0.000000
vn 0.000000 1.000000 0.000000
vn 0.000000 1.000000 0.000000
vn -1.000000 0.000000 0.000000
vn -1.000000 0.000000 0.000000
vn -1.000000 0.000000 0.000000
vn -1.000000 0.000000 0.000000
vn 0.000000 -1.000000 0.000000
vn 0.000000 -1.000000 0.000000
vn 0.000000 -1.000000 0.000000
vn 0.000000 -1.000000 0.000000
vn 1.000000 0.000000 0.000000
vn 1.000000 0.000000 0.000000
vn 1.000000 0.000000 0.000000
vn 1.000000 0.000000 0.000000
s 1
g pCube2
usemtl lambert11SG
f 19/29/1 30/41/2 31/43/3 18/28/4
s 2
f 24/35/5 25/36/6 26/37/7 23/34/8
s 3
f 21/32/9 28/39/10 29/40/11 20/31/12
s 4
f 20/31/13 29/40/14 30/42/15 19/30/16
s 5
f 2/2/17 8/11/18 15/25/19 16/26/20
s 6
f 7/13/21 1/1/22 13/21/23 14/22/24
f 10/16/25 9/15/26 3/3/27 5/14/28
s 3
f 23/34/29 26/37/30 27/38/31 22/33/32
s 5
f 12/20/33 11/19/34 6/12/35 4/4/36
s 1
f 24/35/37 17/27/38 32/44/39 25/36/40
s 6
f 14/22/24 13/21/23 9/15/26 10/16/25
s 3
f 22/33/32 27/38/31 28/39/10 21/32/9
s 5
f 16/26/20 15/25/19 11/19/34 12/20/33
s off
usemtl lambert13SG
f 34/45/41 33/46/42 35/47/43 36/48/44
s 1
usemtl lambert11SG
f 13/21/45 18/28/4 17/27/38 9/15/46
f 1/1/47 19/29/1 18/28/4 13/21/45
s 4
f 7/7/48 20/31/13 19/30/16 1/9/49
s 3
f 14/23/50 21/32/9 20/31/12 7/7/51
f 10/17/52 22/33/32 21/32/9 14/23/50
f 5/5/53 23/34/29 22/33/32 10/17/52
s 2
f 3/3/54 24/35/5 23/34/8 5/5/55
s 1
f 9/15/46 17/27/38 24/35/37 3/3/56
s 2
f 25/36/6 4/4/57 6/6/58 26/37/7
s 3
f 27/38/31 26/37/30 6/6/59 11/18/60
f 28/39/10 27/38/31 11/18/60 15/24/61
f 29/40/11 28/39/10 15/24/61 8/8/62
s 4
f 30/42/15 29/40/14 8/8/63 2/10/64
s 1
f 31/43/3 30/41/2 2/2/65 16/26/66
f 32/44/39 31/43/3 16/26/66 12/20/67
f 25/36/40 32/44/39 12/20/67 4/4/68
s off
f 18/28/69 31/43/70 33/46/71 34/45/72
f 31/43/73 32/44/74 35/47/75 33/46/76
f 32/44/77 17/27/78 36/48/79 35/47/80
f 17/27/81 18/28/82 34/45/83 36/48/84
