# This file uses centimeters as units for non-parametric coordinates.

mtllib wall1.mtl
v -0.808221 -4.002275 4.002275
v 0.808221 -4.002275 4.002275
v -0.808221 4.002275 4.002275
v 0.808221 4.002275 4.002275
v -0.808221 4.002275 -4.002275
v 0.808221 4.002275 -4.002275
v -0.808221 -4.002275 -4.002275
v 0.808221 -4.002275 -4.002275
vt 0.764779 0.457519
vt 0.732969 0.421446
vt 0.286994 0.690159
vt 0.287646 0.757957
vt 0.622725 0.686932
vt 0.960137 0.747439
vt 0.619498 0.351201
vt 0.710096 0.663043
vt 0.665050 0.681079
vt 0.283767 0.354429
vt 0.931690 0.796714
vt 0.988609 0.455853
vt 0.623376 0.754729
vt 0.979385 0.403583
vn 0.000000 0.000000 1.000000
vn 0.000000 0.000000 1.000000
vn 0.000000 0.000000 1.000000
vn 0.000000 0.000000 1.000000
vn 0.000000 1.000000 0.000000
vn 0.000000 1.000000 0.000000
vn 0.000000 1.000000 0.000000
vn 0.000000 1.000000 0.000000
vn 0.000000 0.000000 -1.000000
vn 0.000000 0.000000 -1.000000
vn 0.000000 0.000000 -1.000000
vn 0.000000 0.000000 -1.000000
vn 0.000000 -1.000000 0.000000
vn 0.000000 -1.000000 0.000000
vn 0.000000 -1.000000 0.000000
vn 0.000000 -1.000000 0.000000
vn 1.000000 0.000000 0.000000
vn 1.000000 0.000000 0.000000
vn 1.000000 0.000000 0.000000
vn 1.000000 0.000000 0.000000
vn -1.000000 0.000000 0.000000
vn -1.000000 0.000000 0.000000
vn -1.000000 0.000000 0.000000
vn -1.000000 0.000000 0.000000
s off
usemtl initialShadingGroup
f 1/1/1 2/2/2 4/14/3 3/12/4
f 3/4/5 4/3/6 6/5/7 5/13/8
f 5/6/9 6/11/10 8/9/11 7/8/12
f 7/8/13 8/9/14 2/2/15 1/1/16
f 2/10/17 8/7/18 6/5/19 4/3/20
f 7/8/21 1/1/22 3/12/23 5/6/24
