# This file uses centimeters as units for non-parametric coordinates.

mtllib Table.mtl
v -2.983314 4.294359 4.809211
v 2.983314 4.294359 4.809211
v -2.983314 4.667861 4.809211
v 2.983314 4.667861 4.809211
v -2.983314 4.667861 -4.809211
v 2.983314 4.667861 -4.809211
v -2.983314 4.294359 -4.809211
v 2.983314 4.294359 -4.809211
v 2.082961 4.294359 4.809211
v 2.082961 4.667861 4.809211
v 2.082961 4.667861 -4.809211
v 2.082961 4.294359 -4.809211
v -2.270820 4.294359 4.809211
v -2.270820 4.667861 4.809211
v -2.270820 4.667861 -4.809211
v -2.270820 4.294359 -4.809211
v 2.983314 4.667861 4.488387
v 2.082961 4.667861 4.488387
v -2.270820 4.667861 4.488387
v -2.983314 4.667861 4.488387
v -2.983314 4.294359 4.488387
v -2.270819 4.294359 4.488387
v 2.082961 4.294359 4.488387
v 2.983314 4.294359 4.488387
v 2.983314 4.667861 -4.430814
v 2.082961 4.667861 -4.430814
v -2.270820 4.667861 -4.430814
v -2.983314 4.667861 -4.430814
v -2.983314 4.294359 -4.430814
v -2.270820 4.294359 -4.430814
v 2.082961 4.294359 -4.430814
v 2.983314 4.294359 -4.430814
v -2.983314 2.702620 4.488387
v -2.270819 2.702620 4.488387
v -2.270820 2.702620 4.809211
v -2.983314 2.702620 4.809211
v 2.082961 2.702620 4.488387
v 2.082961 2.702620 4.809211
v 2.983314 2.702620 4.488387
v 2.983314 2.702620 4.809211
v -2.983314 2.702620 -4.809211
v -2.270820 2.702620 -4.809211
v -2.270820 2.702620 -4.430814
v -2.983314 2.702620 -4.430814
v 2.082961 2.702620 -4.430814
v 2.983314 2.702620 -4.430814
v 2.082961 2.702620 -4.809211
v 2.983314 2.702620 -4.809211
v -2.983314 0.913384 4.488387
v -2.270819 0.913384 4.488387
v -2.270820 0.913384 4.809211
v -2.983314 0.913384 4.809211
v 2.082961 0.913384 4.488387
v 2.082961 0.913384 4.809211
v 2.983314 0.913384 4.488387
v 2.983314 0.913384 4.809211
v -2.983314 0.913384 -4.809211
v -2.270820 0.913384 -4.809211
v -2.270820 0.913384 -4.430814
v -2.983314 0.913384 -4.430814
v 2.082961 0.913384 -4.430814
v 2.983314 0.913384 -4.430814
v 2.082961 0.913384 -4.809211
v 2.983314 0.913384 -4.809211
vt 0.207727 0.235700
vt 0.244378 0.207089
vt 0.261962 0.906210
vt 0.269235 0.940356
vt 0.279262 0.903952
vt 0.283642 0.942015
vt 0.773471 0.907950
vt 0.777459 0.874140
vt 0.800605 0.198518
vt 0.833577 0.228454
vt 0.112631 0.071907
vt 0.131834 0.092869
vt 0.134365 0.103484
vt 0.115767 0.090261
vt 0.207689 0.408059
vt 0.193639 0.395531
vt 0.262195 0.621791
vt 0.248589 0.624911
vt 0.270400 0.161479
vt 0.248880 0.447137
vt 0.245167 0.670778
vt 0.262628 0.670298
vt 0.804899 0.436860
vt 0.764760 0.637894
vt 0.755893 0.594367
vt 0.758750 0.511916
vt 0.129719 0.550922
vt 0.130970 0.560036
vt 0.090871 0.565341
vt 0.100278 0.551043
vt 0.262761 0.201731
vt 0.266810 0.453204
vt 0.743963 0.639889
vt 0.739996 0.591785
vt 0.756836 0.873985
vt 0.758431 0.912225
vt 0.850362 0.242948
vt 0.778975 0.191780
vt 0.783468 0.443604
vt 0.772739 0.494558
vt 0.935971 0.088840
vt 0.917481 0.085560
vt 0.913297 0.077650
vt 0.947424 0.070409
vt 0.909217 0.585431
vt 0.911578 0.560671
vt 0.920316 0.557154
vt 0.928007 0.596765
vt 0.197514 0.132022
vt 0.214399 0.098771
vt 0.184686 0.145542
vt 0.147360 0.167173
vt 0.193550 0.515232
vt 0.182597 0.500006
vt 0.125589 0.460502
vt 0.141263 0.469502
vt 0.863578 0.141599
vt 0.897766 0.165568
vt 0.849531 0.124751
vt 0.916336 0.175883
vt 0.854690 0.507801
vt 0.830405 0.551136
vt 0.872175 0.494268
vt 0.821482 0.570464
vt 0.742846 0.571923
vt 0.769197 0.583091
vt 0.787479 0.917974
vt 0.763483 0.931658
vt 0.256852 0.602194
vt 0.281509 0.962029
vt 0.784734 0.635058
vt 0.797282 0.875714
vt 0.242060 0.910425
vt 0.225016 0.670441
vt 0.234436 0.615083
vt 0.259720 0.953866
vt 0.831351 0.085514
vt 0.128765 0.171636
vt 0.769753 0.151144
vt 0.191434 0.246465
vt 0.921325 0.472909
vt 0.211304 0.566384
vt 0.850208 0.400565
vt 0.278245 0.505016
vn -0.000001 0.000000 1.000000
vn 0.000000 0.000000 1.000000
vn 0.000000 0.000000 1.000000
vn -0.000001 0.000000 1.000000
vn 0.000000 1.000000 0.000000
vn 0.000000 1.000000 0.000000
vn 0.000000 1.000000 0.000000
vn 0.000000 1.000000 0.000000
vn -0.000001 0.000000 -1.000000
vn 0.000000 0.000000 -1.000000
vn 0.000000 0.000000 -1.000000
vn -0.000001 0.000000 -1.000000
vn 0.000000 -1.000000 0.000001
vn 0.000000 -1.000000 0.000001
vn 0.000000 -1.000000 0.000001
vn 0.000000 -1.000000 0.000001
vn 1.000000 0.000001 0.000000
vn 1.000000 0.000001 0.000000
vn 1.000000 0.000001 0.000000
vn 1.000000 0.000001 0.000000
vn -1.000000 0.000001 0.000000
vn -1.000000 0.000000 0.000000
vn -1.000000 0.000000 0.000000
vn -1.000000 0.000001 0.000000
vn 0.000000 0.000000 1.000000
vn 0.000000 0.000000 1.000000
vn 0.000000 0.000000 1.000000
vn 0.000000 0.000000 1.000000
vn 0.000000 1.000000 0.000000
vn 0.000000 1.000000 0.000000
vn 0.000000 1.000000 0.000000
vn 0.000000 1.000000 0.000000
vn 0.000000 0.000000 -1.000000
vn 0.000000 0.000000 -1.000000
vn 0.000000 0.000000 -1.000000
vn 0.000000 0.000000 -1.000000
vn 0.000000 -1.000000 0.000000
vn 0.000000 -1.000000 0.000000
vn 0.000000 -1.000000 0.000000
vn 0.000000 -1.000000 0.000000
vn 0.000000 0.000000 1.000000
vn 0.000000 0.000000 1.000000
vn 0.000000 0.000000 1.000000
vn 0.000000 0.000000 1.000000
vn 0.000000 1.000000 0.000000
vn 0.000000 1.000000 0.000000
vn 0.000000 1.000000 0.000000
vn 0.000000 1.000000 0.000000
vn 0.000000 0.000000 -1.000000
vn 0.000000 0.000000 -1.000000
vn 0.000000 0.000000 -1.000000
vn 0.000000 0.000000 -1.000000
vn 0.000000 -1.000000 0.000000
vn 0.000000 -1.000000 0.000000
vn 0.000000 -1.000000 0.000000
vn 0.000000 -1.000000 0.000000
vn 0.000000 1.000000 0.000000
vn 0.000000 1.000000 0.000000
vn 0.000000 1.000000 0.000000
vn 0.000000 1.000000 0.000000
vn 0.000000 1.000000 0.000000
vn 0.000000 1.000000 0.000000
vn 0.000000 1.000000 0.000000
vn 0.000000 1.000000 0.000000
vn 0.000000 1.000000 0.000000
vn 0.000000 1.000000 0.000000
vn 0.000000 1.000000 0.000000
vn 0.000000 1.000000 0.000000
vn -1.000000 0.000001 0.000000
vn -1.000000 0.000001 0.000000
vn -1.000000 0.000001 0.000000
vn -1.000000 0.000001 0.000000
vn 0.000000 -1.000000 0.000000
vn 0.000000 -1.000000 0.000000
vn 0.000000 -1.000000 0.000000
vn 0.000000 -1.000000 0.000000
vn 0.000000 -1.000000 0.000000
vn 0.000000 -1.000000 0.000000
vn 0.000000 -1.000000 0.000000
vn 0.000000 -1.000000 0.000000
vn 0.000000 -1.000000 0.000000
vn 0.000000 -1.000000 0.000000
vn 0.000000 -1.000000 0.000000
vn 0.000000 -1.000000 0.000000
vn 1.000000 0.000001 0.000000
vn 1.000000 0.000001 0.000000
vn 1.000000 0.000001 0.000000
vn 1.000000 0.000001 0.000000
vn 0.000000 1.000000 0.000000
vn 0.000000 1.000000 0.000000
vn 0.000000 1.000000 0.000000
vn 0.000000 1.000000 0.000000
vn 0.000000 1.000000 0.000000
vn 0.000000 1.000000 0.000000
vn 0.000000 1.000000 0.000000
vn 0.000000 1.000000 0.000000
vn 0.000000 1.000000 0.000000
vn 0.000000 1.000000 0.000000
vn 0.000000 1.000000 0.000000
vn 0.000000 1.000000 0.000000
vn -1.000000 0.000000 0.000000
vn -1.000000 0.000001 0.000000
vn -1.000000 0.000001 0.000000
vn -1.000000 0.000000 0.000000
vn 0.000000 -1.000000 0.000000
vn 0.000000 -1.000000 0.000000
vn 0.000000 -1.000000 0.000000
vn 0.000000 -1.000000 0.000000
vn 0.000000 -1.000000 0.000000
vn 0.000000 -1.000000 0.000000
vn 0.000000 -1.000000 0.000000
vn 0.000000 -1.000000 0.000000
vn 0.000000 -1.000000 0.000000
vn 0.000000 -1.000000 0.000000
vn 0.000000 -1.000000 0.000000
vn 0.000000 -1.000000 0.000000
vn 1.000000 0.000001 0.000000
vn 1.000000 0.000001 0.000000
vn 1.000000 0.000000 0.000000
vn 1.000000 0.000000 0.000000
vn 0.000000 0.000000 -1.000000
vn 0.000000 0.000000 -1.000000
vn 0.000000 0.000000 -1.000000
vn 0.000000 0.000000 -1.000000
vn 1.000000 0.000000 0.000000
vn 1.000000 0.000000 0.000000
vn 1.000000 0.000000 0.000000
vn 1.000000 0.000000 0.000000
vn -0.000001 0.000000 1.000000
vn -0.000001 0.000000 1.000000
vn -0.000001 0.000000 1.000000
vn -0.000001 0.000000 1.000000
vn -1.000000 0.000000 0.000000
vn -1.000000 0.000000 0.000000
vn -1.000000 0.000000 0.000000
vn -1.000000 0.000000 0.000000
vn -1.000000 0.000000 0.000000
vn -1.000000 0.000000 0.000000
vn -1.000000 0.000000 0.000000
vn -1.000000 0.000000 0.000000
vn 0.000000 0.000000 -1.000000
vn 0.000000 0.000000 -1.000000
vn 0.000000 0.000000 -1.000000
vn 0.000000 0.000000 -1.000000
vn 1.000000 0.000000 0.000000
vn 1.000000 0.000000 0.000000
vn 1.000000 0.000000 0.000000
vn 1.000000 0.000000 0.000000
vn 0.000000 0.000000 1.000000
vn 0.000000 0.000000 1.000000
vn 0.000000 0.000000 1.000000
vn 0.000000 0.000000 1.000000
vn -0.000001 0.000000 -1.000000
vn -0.000001 0.000000 -1.000000
vn -0.000001 0.000000 -1.000000
vn -0.000001 0.000000 -1.000000
vn 1.000000 0.000000 0.000000
vn 1.000000 0.000000 0.000000
vn 1.000000 0.000000 0.000000
vn 1.000000 0.000000 0.000000
vn 0.000001 0.000000 1.000000
vn 0.000001 0.000000 1.000000
vn 0.000001 0.000000 1.000000
vn 0.000001 0.000000 1.000000
vn -1.000000 0.000000 0.000000
vn -1.000000 0.000000 0.000000
vn -1.000000 0.000000 0.000000
vn -1.000000 0.000000 0.000000
vn 0.000000 0.000000 1.000000
vn 0.000000 0.000000 1.000000
vn 0.000000 0.000000 1.000000
vn 0.000000 0.000000 1.000000
vn -1.000000 0.000000 0.000000
vn -1.000000 0.000000 0.000000
vn -1.000000 0.000000 0.000000
vn -1.000000 0.000000 0.000000
vn 0.000000 0.000000 -1.000000
vn 0.000000 0.000000 -1.000000
vn 0.000000 0.000000 -1.000000
vn 0.000000 0.000000 -1.000000
vn 1.000000 0.000000 0.000000
vn 1.000000 0.000000 0.000000
vn 1.000000 0.000000 0.000000
vn 1.000000 0.000000 0.000000
vn 0.000000 0.000000 -1.000000
vn 0.000000 0.000000 -1.000000
vn 0.000000 0.000000 -1.000000
vn 0.000000 0.000000 -1.000000
vn 1.000000 0.000000 0.000000
vn 1.000000 0.000000 0.000000
vn 1.000000 0.000000 0.000000
vn 1.000000 0.000000 0.000000
vn -0.000001 0.000000 1.000000
vn -0.000001 0.000000 1.000000
vn -0.000001 0.000000 1.000000
vn -0.000001 0.000000 1.000000
vn -1.000000 0.000000 0.000000
vn -1.000000 0.000000 0.000000
vn -1.000000 0.000000 0.000000
vn -1.000000 0.000000 0.000000
vn -1.000000 0.000000 0.000000
vn -1.000000 0.000000 0.000000
vn -1.000000 0.000000 0.000000
vn -1.000000 0.000000 0.000000
vn 0.000000 0.000000 -1.000000
vn 0.000000 0.000000 -1.000000
vn 0.000000 0.000000 -1.000000
vn 0.000000 0.000000 -1.000000
vn 1.000000 0.000000 0.000000
vn 1.000000 0.000000 0.000000
vn 1.000000 0.000000 0.000000
vn 1.000000 0.000000 0.000000
vn 0.000000 0.000000 1.000000
vn 0.000000 0.000000 1.000000
vn 0.000000 0.000000 1.000000
vn 0.000000 0.000000 1.000000
vn -0.000001 0.000000 -1.000000
vn -0.000001 0.000000 -1.000000
vn -0.000001 0.000000 -1.000000
vn -0.000001 0.000000 -1.000000
vn 1.000000 0.000000 0.000000
vn 1.000000 0.000000 0.000000
vn 1.000000 0.000000 0.000000
vn 1.000000 0.000000 0.000000
vn 0.000001 0.000000 1.000000
vn 0.000001 0.000000 1.000000
vn 0.000001 0.000000 1.000000
vn 0.000001 0.000000 1.000000
vn -1.000000 0.000000 0.000000
vn -1.000000 0.000000 0.000000
vn -1.000000 0.000000 0.000000
vn -1.000000 0.000000 0.000000
vn 0.000000 0.000000 1.000000
vn 0.000000 0.000000 1.000000
vn 0.000000 0.000000 1.000000
vn 0.000000 0.000000 1.000000
vn -1.000000 0.000000 0.000000
vn -1.000000 0.000000 0.000000
vn -1.000000 0.000000 0.000000
vn -1.000000 0.000000 0.000000
vn 0.000000 0.000000 -1.000000
vn 0.000000 0.000000 -1.000000
vn 0.000000 0.000000 -1.000000
vn 0.000000 0.000000 -1.000000
vn 1.000000 0.000000 0.000000
vn 1.000000 0.000000 0.000000
vn 1.000000 0.000000 0.000000
vn 1.000000 0.000000 0.000000
s off
usemtl initialShadingGroup
f 1/76/1 13/73/2 14/3/3 3/4/4
f 3/4/5 14/3/6 19/5/7 20/6/8
f 5/7/9 15/8/10 16/72/11 7/67/12
f 49/11/13 50/12/14 51/13/15 52/14/16
f 2/75/17 24/69/18 17/17/19 4/18/20
f 21/70/21 1/76/22 3/4/23 20/6/24
f 9/74/25 2/75/26 4/18/27 10/21/28
f 18/22/29 10/21/30 4/18/31 17/17/32
f 12/71/33 11/24/34 6/25/35 8/66/36
f 54/27/37 53/28/38 55/29/39 56/30/40
f 13/73/41 9/74/42 10/21/43 14/3/44
f 19/5/45 14/3/46 10/21/47 18/22/48
f 16/72/49 15/8/50 11/24/51 12/71/52
f 13/2/53 22/31/54 23/32/55 9/20/56
f 26/33/57 18/22/58 17/17/59 25/34/60
f 27/35/61 19/5/62 18/22/63 26/33/64
f 20/6/65 19/5/66 27/35/67 28/36/68
f 29/68/69 21/70/70 20/6/71 28/36/72
f 29/79/73 30/38/74 22/31/75 21/19/76
f 23/32/77 22/31/78 30/38/79 31/39/80
f 24/84/81 23/32/82 31/39/83 32/40/84
f 17/17/85 24/69/86 32/65/87 25/34/88
f 11/24/89 26/33/90 25/34/91 6/25/92
f 15/8/93 27/35/94 26/33/95 11/24/96
f 28/36/97 27/35/98 15/8/99 5/7/100
f 7/67/101 29/68/102 28/36/103 5/7/104
f 57/41/105 58/42/106 59/43/107 60/44/108
f 31/39/109 30/38/110 16/9/111 12/23/112
f 62/45/113 61/46/114 63/47/115 64/48/116
f 25/34/117 32/65/118 8/66/119 6/25/120
f 21/19/121 22/31/122 34/49/123 33/50/124
f 22/31/125 13/2/126 35/51/127 34/49/128
f 13/2/129 1/1/130 36/52/131 35/51/132
f 1/1/133 21/80/134 33/78/135 36/52/136
f 9/20/137 23/32/138 37/53/139 38/54/140
f 23/32/141 24/84/142 39/82/143 37/53/144
f 24/16/145 2/15/146 40/56/147 39/55/148
f 2/15/149 9/20/150 38/54/151 40/56/152
f 7/10/153 16/9/154 42/57/155 41/58/156
f 16/9/157 30/38/158 43/59/159 42/57/160
f 30/38/161 29/79/162 44/77/163 43/59/164
f 29/37/165 7/10/166 41/58/167 44/60/168
f 32/40/169 31/39/170 45/61/171 46/62/172
f 31/39/173 12/23/174 47/63/175 45/61/176
f 12/23/177 8/83/178 48/81/179 47/63/180
f 8/26/181 32/40/182 46/62/183 48/64/184
f 33/50/185 34/49/186 50/12/187 49/11/188
f 34/49/189 35/51/190 51/13/191 50/12/192
f 35/51/193 36/52/194 52/14/195 51/13/196
f 36/52/197 33/78/198 49/11/199 52/14/200
f 38/54/201 37/53/202 53/28/203 54/27/204
f 37/53/205 39/82/206 55/29/207 53/28/208
f 39/55/209 40/56/210 56/30/211 55/29/212
f 40/56/213 38/54/214 54/27/215 56/30/216
f 41/58/217 42/57/218 58/42/219 57/41/220
f 42/57/221 43/59/222 59/43/223 58/42/224
f 43/59/225 44/77/226 60/44/227 59/43/228
f 44/60/229 41/58/230 57/41/231 60/44/232
f 46/62/233 45/61/234 61/46/235 62/45/236
f 45/61/237 47/63/238 63/47/239 61/46/240
f 47/63/241 48/81/242 64/48/243 63/47/244
f 48/64/245 46/62/246 62/45/247 64/48/248
